<svg xmlns="http://www.w3.org/2000/svg" viewBox="0 0 126.43 199.09"><defs><style>.cls-1{fill:#fff;}</style></defs><g id="Capa_2" data-name="Capa 2"><g id="Capa_1-2" data-name="Capa 1"><path class="cls-1" d="M5.35,148.86H3.91A3.91,3.91,0,0,1,0,145V54.14a3.91,3.91,0,0,1,3.91-3.91H5.35a3.91,3.91,0,0,1,3.91,3.91V145a3.91,3.91,0,0,1-3.91,3.91"/><path class="cls-1" d="M26.24,181.83H24.79a3.91,3.91,0,0,1-3.91-3.9V21.16a3.91,3.91,0,0,1,3.91-3.91h1.45a3.91,3.91,0,0,1,3.9,3.91V177.93a3.91,3.91,0,0,1-3.9,3.9"/><path class="cls-1" d="M45.24,139H43.8a3.92,3.92,0,0,1-3.91-3.91v-71a3.92,3.92,0,0,1,3.91-3.92h1.44a3.93,3.93,0,0,1,3.92,3.92v71A3.92,3.92,0,0,1,45.24,139"/><path class="cls-1" d="M65.67,160.87H64.22a3.89,3.89,0,0,1-3.9-3.91V42.12a3.9,3.9,0,0,1,3.9-3.91h1.45a3.91,3.91,0,0,1,3.91,3.91V157a3.9,3.9,0,0,1-3.91,3.91"/><path class="cls-1" d="M84.35,199.09H82.9A3.91,3.91,0,0,1,79,195.18V3.91A3.91,3.91,0,0,1,82.9,0h1.45a3.91,3.91,0,0,1,3.9,3.91V195.18a3.91,3.91,0,0,1-3.9,3.91"/><path class="cls-1" d="M103.85,129.42H102.4a3.92,3.92,0,0,1-3.91-3.91V73.58a3.92,3.92,0,0,1,3.91-3.91h1.45a3.9,3.9,0,0,1,3.9,3.91v51.93a3.9,3.9,0,0,1-3.9,3.91"/><path class="cls-1" d="M122.53,156.14h-1.45a3.91,3.91,0,0,1-3.91-3.9V46.85a3.91,3.91,0,0,1,3.91-3.91h1.45a3.91,3.91,0,0,1,3.9,3.91V152.24a3.91,3.91,0,0,1-3.9,3.9"/></g></g></svg>