<svg xmlns="http://www.w3.org/2000/svg" viewBox="0 0 18.39 28.95"><defs><style>.cls-1{fill:#7cb7df;}</style></defs><g id="Capa_2" data-name="Capa 2"><g id="Capa_1-2" data-name="Capa 1"><path class="cls-1" d="M.78,21.65H.57A.56.56,0,0,1,0,21.08V7.87a.56.56,0,0,1,.57-.56H.78a.57.57,0,0,1,.57.56V21.08a.57.57,0,0,1-.57.57"/><path class="cls-1" d="M3.82,26.44H3.6A.56.56,0,0,1,3,25.88V3.08a.56.56,0,0,1,.56-.57h.22a.56.56,0,0,1,.56.57v22.8a.56.56,0,0,1-.56.56"/><path class="cls-1" d="M6.58,20.21H6.37a.58.58,0,0,1-.57-.57V9.31a.57.57,0,0,1,.57-.56h.21a.57.57,0,0,1,.57.56V19.64a.58.58,0,0,1-.57.57"/><path class="cls-1" d="M9.55,23.4H9.34a.58.58,0,0,1-.57-.57V6.13a.57.57,0,0,1,.57-.57h.21a.57.57,0,0,1,.57.57v16.7a.58.58,0,0,1-.57.57"/><path class="cls-1" d="M12.27,29h-.21a.56.56,0,0,1-.57-.56V.57A.56.56,0,0,1,12.06,0h.21a.56.56,0,0,1,.56.57V28.39a.56.56,0,0,1-.56.56"/><path class="cls-1" d="M15.1,18.82h-.21a.57.57,0,0,1-.57-.57V10.7a.58.58,0,0,1,.57-.57h.21a.57.57,0,0,1,.57.57v7.55a.56.56,0,0,1-.57.57"/><path class="cls-1" d="M17.82,22.71h-.21a.58.58,0,0,1-.57-.57V6.81a.57.57,0,0,1,.57-.56h.21a.57.57,0,0,1,.57.56V22.14a.58.58,0,0,1-.57.57"/></g></g></svg>