<svg xmlns="http://www.w3.org/2000/svg" viewBox="0 0 154.88 38.13"><defs><style>.cls-1{fill:#fefefe;}.cls-2{fill:#fff;}</style></defs><g id="Capa_2" data-name="Capa 2"><g id="Capa_1-2" data-name="Capa 1"><path class="cls-1" d="M40.67,23A4.25,4.25,0,0,1,40,25.42a4.5,4.5,0,0,1-2,1.66,7.49,7.49,0,0,1-3.12.6,7.09,7.09,0,0,1-3.57-.82,4.86,4.86,0,0,1-1.62-1.57,3.62,3.62,0,0,1-.62-1.91,1.31,1.31,0,0,1,.37-.92,1.26,1.26,0,0,1,.95-.38,1.17,1.17,0,0,1,.8.29,2.43,2.43,0,0,1,.55.89,6.33,6.33,0,0,0,.6,1.17,2.48,2.48,0,0,0,.91.77,3.42,3.42,0,0,0,1.55.3,3.48,3.48,0,0,0,2.14-.61,1.87,1.87,0,0,0,.82-1.53,1.61,1.61,0,0,0-.45-1.18,2.81,2.81,0,0,0-1.14-.69A19.34,19.34,0,0,0,34.28,21a14.11,14.11,0,0,1-2.64-.86A4.34,4.34,0,0,1,30,18.77a3.51,3.51,0,0,1-.62-2.11A3.65,3.65,0,0,1,30,14.51a4.12,4.12,0,0,1,1.9-1.43,7.71,7.71,0,0,1,2.93-.51,7,7,0,0,1,2.32.34,4.77,4.77,0,0,1,1.63.88A3.83,3.83,0,0,1,39.73,15a2.69,2.69,0,0,1,.3,1.19,1.4,1.4,0,0,1-.38.95,1.18,1.18,0,0,1-.92.42,1.09,1.09,0,0,1-.78-.25,3.54,3.54,0,0,1-.57-.83,3.78,3.78,0,0,0-1-1.29,2.78,2.78,0,0,0-1.79-.47,3.09,3.09,0,0,0-1.85.51,1.45,1.45,0,0,0-.7,1.2,1.21,1.21,0,0,0,.24.76,2,2,0,0,0,.66.56,5,5,0,0,0,.84.35c.29.09.76.21,1.42.38a20,20,0,0,1,2.23.64,6.81,6.81,0,0,1,1.71.84,3.57,3.57,0,0,1,1.09,1.26,4.1,4.1,0,0,1,.4,1.87"/><path class="cls-1" d="M57.44,23.39A4.72,4.72,0,0,1,57,25.22a6.72,6.72,0,0,1-3.59,3.47,8.15,8.15,0,0,1-3.24.59A11.11,11.11,0,0,1,47.64,29a7.42,7.42,0,0,1-2.09-.83,7.2,7.2,0,0,1-1.72-1.48,8.16,8.16,0,0,1-1.19-1.87,9.52,9.52,0,0,1-.75-2.2,12.36,12.36,0,0,1-.25-2.49,10.87,10.87,0,0,1,.63-3.83,8.14,8.14,0,0,1,1.78-2.9,7.77,7.77,0,0,1,2.72-1.83A8.79,8.79,0,0,1,50.09,11a8.31,8.31,0,0,1,3.83.86,7,7,0,0,1,2.58,2.12,4.23,4.23,0,0,1,.89,2.39A1.53,1.53,0,0,1,57,17.41a1.37,1.37,0,0,1-1.06.48,1.45,1.45,0,0,1-1-.33,4.33,4.33,0,0,1-.76-1.12,5.4,5.4,0,0,0-1.65-2,4,4,0,0,0-2.34-.66,4.28,4.28,0,0,0-3.53,1.68,7.66,7.66,0,0,0-1.31,4.78,8.92,8.92,0,0,0,.58,3.43,4.33,4.33,0,0,0,1.64,2.05,4.58,4.58,0,0,0,2.49.68,4.32,4.32,0,0,0,2.62-.77,4.7,4.7,0,0,0,1.62-2.25,3.79,3.79,0,0,1,.56-1.14,1.31,1.31,0,0,1,1.09-.44,1.53,1.53,0,0,1,1.1.44,1.49,1.49,0,0,1,.46,1.12"/><path class="cls-1" d="M68,25.43l-.66-1.73H61.76l-.66,1.76a5.91,5.91,0,0,1-.65,1.39,1,1,0,0,1-.89.37,1.35,1.35,0,0,1-.93-.39,1.15,1.15,0,0,1-.4-.87,2,2,0,0,1,.09-.58c.07-.2.17-.48.31-.83l3.51-8.91.36-.92a4.32,4.32,0,0,1,.45-.89,1.85,1.85,0,0,1,.63-.58,1.87,1.87,0,0,1,1-.22,1.89,1.89,0,0,1,1,.22,1.93,1.93,0,0,1,.63.57,4.06,4.06,0,0,1,.4.74c.11.27.25.62.42,1.06l3.58,8.85A4.54,4.54,0,0,1,71,25.94a1.22,1.22,0,0,1-.4.88A1.34,1.34,0,0,1,69,27.1a1.26,1.26,0,0,1-.4-.32,2.81,2.81,0,0,1-.34-.62c-.12-.28-.23-.52-.31-.73m-5.5-3.81h4.09L64.52,16Z"/><path class="cls-1" d="M80.31,26.16l-2.78-11v15.4A2.16,2.16,0,0,1,77.09,32a1.63,1.63,0,0,1-2.33,0,2.12,2.12,0,0,1-.45-1.49V13.39a1.72,1.72,0,0,1,.59-1.53,2.88,2.88,0,0,1,1.59-.4h1.09a4.06,4.06,0,0,1,1.42.18,1.18,1.18,0,0,1,.66.64,9.7,9.7,0,0,1,.48,1.49l2.51,9.48,2.52-9.48a9.7,9.7,0,0,1,.48-1.49,1.18,1.18,0,0,1,.66-.64,4,4,0,0,1,1.42-.18h1.08a2.83,2.83,0,0,1,1.59.4,1.7,1.7,0,0,1,.6,1.53V30.53A2.16,2.16,0,0,1,90.55,32a1.5,1.5,0,0,1-1.18.49A1.48,1.48,0,0,1,88.22,32a2.16,2.16,0,0,1-.45-1.49V15.13L85,26.16c-.18.71-.33,1.23-.44,1.57a2.18,2.18,0,0,1-.63.91,1.82,1.82,0,0,1-1.28.41A1.84,1.84,0,0,1,81,28.11a3.71,3.71,0,0,1-.38-.91c-.09-.33-.18-.69-.27-1"/><path class="cls-1" d="M93,22.12V15.49a1.79,1.79,0,0,1,.38-1.26,1.28,1.28,0,0,1,1-.43,1.34,1.34,0,0,1,1,.43,1.84,1.84,0,0,1,.38,1.26v6.78a5.88,5.88,0,0,0,.26,1.93A2.19,2.19,0,0,0,97,25.41a3.33,3.33,0,0,0,1.85.43,2.75,2.75,0,0,0,2.31-.87,4.27,4.27,0,0,0,.68-2.64V15.49a1.85,1.85,0,0,1,.37-1.27,1.29,1.29,0,0,1,1-.42,1.33,1.33,0,0,1,1,.42,1.8,1.8,0,0,1,.39,1.27v6.63a9.79,9.79,0,0,1-.32,2.7,4.09,4.09,0,0,1-1.19,1.9,4.63,4.63,0,0,1-1.74,1,7.83,7.83,0,0,1-2.34.32,9.53,9.53,0,0,1-2.73-.35,4.33,4.33,0,0,1-1.87-1.06,4.24,4.24,0,0,1-1.06-1.84A9.27,9.27,0,0,1,93,22.12"/><path class="cls-1" d="M118.69,23.32a4.77,4.77,0,0,1-.75,2.61,5,5,0,0,1-2.19,1.82,8.31,8.31,0,0,1-3.42.65,7.77,7.77,0,0,1-3.91-.89,5.32,5.32,0,0,1-1.78-1.72A4,4,0,0,1,106,23.7a1.42,1.42,0,0,1,.41-1,1.39,1.39,0,0,1,1-.42,1.2,1.2,0,0,1,.86.33,2.57,2.57,0,0,1,.61,1,5.85,5.85,0,0,0,.66,1.28,2.71,2.71,0,0,0,1,.85,3.71,3.71,0,0,0,1.69.33,3.85,3.85,0,0,0,2.35-.67,2,2,0,0,0,.9-1.68,1.74,1.74,0,0,0-.49-1.29,3,3,0,0,0-1.26-.76c-.51-.17-1.19-.36-2-.56a14.86,14.86,0,0,1-2.89-.94A4.56,4.56,0,0,1,107,18.64a3.84,3.84,0,0,1-.68-2.32A4,4,0,0,1,107,14a4.57,4.57,0,0,1,2.08-1.58,8.72,8.72,0,0,1,3.22-.54,7.81,7.81,0,0,1,2.55.36,5.4,5.4,0,0,1,1.78,1,4.13,4.13,0,0,1,1,1.27,3,3,0,0,1,.33,1.3,1.56,1.56,0,0,1-.41,1.05,1.33,1.33,0,0,1-1,.46,1.14,1.14,0,0,1-.84-.28,3.87,3.87,0,0,1-.63-.91,4.13,4.13,0,0,0-1-1.41,3.06,3.06,0,0,0-2-.51,3.38,3.38,0,0,0-2,.55,1.62,1.62,0,0,0-.77,1.33,1.39,1.39,0,0,0,.26.83,2.4,2.4,0,0,0,.72.6,4.61,4.61,0,0,0,.93.39l1.55.42a23,23,0,0,1,2.46.7,7.33,7.33,0,0,1,1.86.92,3.85,3.85,0,0,1,1.21,1.39,4.49,4.49,0,0,1,.43,2"/><path class="cls-1" d="M119.82,26.57V11.68a1.87,1.87,0,0,1,.45-1.37,1.54,1.54,0,0,1,1.16-.46,1.59,1.59,0,0,1,1.18.45,1.84,1.84,0,0,1,.46,1.38V26.57a1.87,1.87,0,0,1-.46,1.38,1.59,1.59,0,0,1-1.18.45,1.52,1.52,0,0,1-1.15-.46,1.87,1.87,0,0,1-.46-1.37"/><path class="cls-1" d="M137.7,22.9a3.94,3.94,0,0,1-.36,1.55,5.41,5.41,0,0,1-1.11,1.64,5.49,5.49,0,0,1-1.94,1.31,6.88,6.88,0,0,1-2.75.51,9.7,9.7,0,0,1-2.17-.23,6.29,6.29,0,0,1-1.77-.7,6.12,6.12,0,0,1-1.46-1.26,7.2,7.2,0,0,1-1-1.59,8.23,8.23,0,0,1-.63-1.87,10.23,10.23,0,0,1-.21-2.12,9.43,9.43,0,0,1,.53-3.25,6.86,6.86,0,0,1,1.52-2.46,6.61,6.61,0,0,1,2.3-1.56,7.65,7.65,0,0,1,2.83-.53,7,7,0,0,1,3.25.73,5.93,5.93,0,0,1,2.19,1.8,3.54,3.54,0,0,1,.76,2,1.3,1.3,0,0,1-.37.92,1.16,1.16,0,0,1-.9.4,1.29,1.29,0,0,1-.88-.27,4.21,4.21,0,0,1-.65-1,4.46,4.46,0,0,0-1.4-1.67,3.4,3.4,0,0,0-2-.56,3.59,3.59,0,0,0-3,1.43,6.41,6.41,0,0,0-1.12,4.06,7.5,7.5,0,0,0,.5,2.92,3.71,3.71,0,0,0,1.39,1.74,3.89,3.89,0,0,0,2.12.57,3.69,3.69,0,0,0,2.22-.65A4,4,0,0,0,135,22.92a3.25,3.25,0,0,1,.48-1,1.09,1.09,0,0,1,.92-.38,1.31,1.31,0,0,1,.94.38,1.27,1.27,0,0,1,.39.95"/><path class="cls-1" d="M150.76,27.5l-.91-2.4H142.1l-.91,2.45a8.82,8.82,0,0,1-.91,1.93A1.46,1.46,0,0,1,139,30a1.82,1.82,0,0,1-1.28-.53,1.62,1.62,0,0,1-.56-1.21,2.63,2.63,0,0,1,.13-.81c.09-.27.22-.66.43-1.16l4.87-12.38c.14-.35.31-.78.5-1.28a6.49,6.49,0,0,1,.63-1.24,2.48,2.48,0,0,1,.87-.8,2.7,2.7,0,0,1,1.33-.31,2.75,2.75,0,0,1,1.35.31,2.55,2.55,0,0,1,.87.79,5.38,5.38,0,0,1,.56,1c.15.37.34.86.58,1.48l5,12.3a6.19,6.19,0,0,1,.58,2,1.7,1.7,0,0,1-.55,1.22A1.8,1.8,0,0,1,153,30a1.74,1.74,0,0,1-.79-.16,1.77,1.77,0,0,1-.54-.44,4.29,4.29,0,0,1-.47-.86c-.18-.39-.32-.73-.44-1m-7.65-5.3h5.7l-2.87-7.86Z"/><path class="cls-2" d="M121.4,2.36a2.72,2.72,0,1,0,2.71,2.72,2.72,2.72,0,0,0-2.71-2.72m0,5a2.29,2.29,0,1,1,2.28-2.29,2.28,2.28,0,0,1-2.28,2.29"/><path class="cls-2" d="M122.71,6.46a.3.3,0,0,1-.11.24.32.32,0,0,1-.48,0l-1-1v.78a.3.3,0,0,1-.1.24.3.3,0,0,1-.25.1.31.31,0,0,1-.24-.1.33.33,0,0,1-.1-.24V3.57a.37.37,0,0,1,.1-.24.33.33,0,0,1,.24-.1h.81a1.1,1.1,0,0,1,.81.33,1.13,1.13,0,0,1,.34.81,1.18,1.18,0,0,1-.24.7,1.17,1.17,0,0,1-.61.41l.74.74a.3.3,0,0,1,.11.24M122,4.37a.43.43,0,0,0-.14-.32.42.42,0,0,0-.32-.14h-.46v.92h.46a.41.41,0,0,0,.32-.13.45.45,0,0,0,.14-.33"/><path class="cls-2" d="M1,28.51H.75A.76.76,0,0,1,0,27.76V10.37a.75.75,0,0,1,.75-.75H1a.74.74,0,0,1,.74.75V27.76a.75.75,0,0,1-.74.75"/><path class="cls-2" d="M5,34.82H4.75A.75.75,0,0,1,4,34.07v-30a.75.75,0,0,1,.75-.74H5a.74.74,0,0,1,.74.74v30a.74.74,0,0,1-.74.75"/><path class="cls-2" d="M8.67,26.61H8.39a.74.74,0,0,1-.75-.75V12.27a.74.74,0,0,1,.75-.75h.28a.74.74,0,0,1,.74.75V25.86a.74.74,0,0,1-.74.75"/><path class="cls-2" d="M12.58,30.81H12.3a.76.76,0,0,1-.75-.75v-22a.75.75,0,0,1,.75-.75h.28a.75.75,0,0,1,.75.75v22a.76.76,0,0,1-.75.75"/><path class="cls-2" d="M16.15,38.13h-.27a.75.75,0,0,1-.75-.75V.75A.75.75,0,0,1,15.88,0h.27a.75.75,0,0,1,.75.75V37.38a.75.75,0,0,1-.75.75"/><path class="cls-2" d="M19.89,24.79h-.28a.76.76,0,0,1-.75-.75V14.09a.76.76,0,0,1,.75-.75h.28a.76.76,0,0,1,.75.75V24a.76.76,0,0,1-.75.75"/><path class="cls-2" d="M23.46,29.9h-.27a.74.74,0,0,1-.75-.74V9a.75.75,0,0,1,.75-.75h.27a.75.75,0,0,1,.75.75V29.16a.74.74,0,0,1-.75.74"/></g></g></svg>