<svg xmlns="http://www.w3.org/2000/svg" viewBox="0 0 290.88 71.6"><defs><style>.cls-1{fill:#5d5d5d;}</style></defs><g id="Capa_2" data-name="Capa 2"><g id="Capa_1-2" data-name="Capa 1"><path class="cls-1" d="M76.38,43.27a8,8,0,0,1-1.29,4.47,8.49,8.49,0,0,1-3.75,3.11A14,14,0,0,1,65.49,52a13.27,13.27,0,0,1-6.71-1.54,9,9,0,0,1-3-2.95,6.66,6.66,0,0,1-1.16-3.58,2.43,2.43,0,0,1,2.48-2.45,2.12,2.12,0,0,1,1.49.56,4.35,4.35,0,0,1,1,1.67,10.61,10.61,0,0,0,1.14,2.19,4.62,4.62,0,0,0,1.7,1.45,6.34,6.34,0,0,0,2.9.57,6.61,6.61,0,0,0,4-1.15,3.47,3.47,0,0,0,1.54-2.88,3,3,0,0,0-.83-2.21,5.39,5.39,0,0,0-2.15-1.31c-.88-.29-2-.61-3.53-1a25.65,25.65,0,0,1-4.95-1.62,8,8,0,0,1-3.16-2.53,6.53,6.53,0,0,1-1.17-4,6.83,6.83,0,0,1,1.23-4,7.78,7.78,0,0,1,3.58-2.7,14.39,14.39,0,0,1,5.5-.95,13.57,13.57,0,0,1,4.37.63,9.29,9.29,0,0,1,3.06,1.66,6.86,6.86,0,0,1,1.77,2.18,5,5,0,0,1,.57,2.23,2.6,2.6,0,0,1-.71,1.78,2.21,2.21,0,0,1-1.74.8,2,2,0,0,1-1.46-.48,6.71,6.71,0,0,1-1.08-1.56,6.89,6.89,0,0,0-1.79-2.42A5.26,5.26,0,0,0,65,27.56a5.79,5.79,0,0,0-3.47,1,2.72,2.72,0,0,0-1.32,2.26,2.3,2.3,0,0,0,.45,1.43,3.88,3.88,0,0,0,1.24,1,8.69,8.69,0,0,0,1.59.67c.53.16,1.42.4,2.65.71a42.65,42.65,0,0,1,4.21,1.2,12.91,12.91,0,0,1,3.2,1.59,6.64,6.64,0,0,1,2.06,2.37,7.71,7.71,0,0,1,.74,3.5"/><path class="cls-1" d="M107.88,43.92a8.92,8.92,0,0,1-.79,3.44,12.58,12.58,0,0,1-6.75,6.52A15.27,15.27,0,0,1,94.26,55a21.42,21.42,0,0,1-4.79-.5,13.57,13.57,0,0,1-3.92-1.56,13.1,13.1,0,0,1-3.23-2.78,16,16,0,0,1-2.24-3.5,18,18,0,0,1-1.41-4.15,22.48,22.48,0,0,1-.46-4.67,20.75,20.75,0,0,1,1.17-7.2,15.39,15.39,0,0,1,3.35-5.44,14.61,14.61,0,0,1,5.11-3.43,16.46,16.46,0,0,1,6.24-1.18,15.5,15.5,0,0,1,7.19,1.61,13,13,0,0,1,4.83,4,7.82,7.82,0,0,1,1.69,4.49,2.9,2.9,0,0,1-.82,2,2.58,2.58,0,0,1-2,.88,2.72,2.72,0,0,1-1.94-.61,8.53,8.53,0,0,1-1.44-2.11,10.18,10.18,0,0,0-3.1-3.7,7.52,7.52,0,0,0-4.39-1.23,8,8,0,0,0-6.61,3.16c-1.65,2.1-2.46,5.09-2.46,9a16.78,16.78,0,0,0,1.08,6.45,8.24,8.24,0,0,0,3.08,3.85,8.52,8.52,0,0,0,4.68,1.27,8.25,8.25,0,0,0,4.92-1.44,8.69,8.69,0,0,0,3-4.23,7.07,7.07,0,0,1,1.06-2.15,2.44,2.44,0,0,1,2-.83,2.84,2.84,0,0,1,2.06.84,2.79,2.79,0,0,1,.87,2.09"/><path class="cls-1" d="M127.68,47.75l-1.23-3.23H116l-1.23,3.31a11.15,11.15,0,0,1-1.23,2.6,2,2,0,0,1-1.66.68,2.46,2.46,0,0,1-1.75-.72,2.2,2.2,0,0,1-.75-1.63,3.8,3.8,0,0,1,.17-1.09c.12-.38.32-.9.58-1.57l6.59-16.72.68-1.73a9.35,9.35,0,0,1,.84-1.68,3.4,3.4,0,0,1,1.18-1.08,4.2,4.2,0,0,1,3.62,0A3.33,3.33,0,0,1,124.19,26a6.53,6.53,0,0,1,.76,1.4c.21.49.47,1.16.78,2L132.46,46a8.34,8.34,0,0,1,.79,2.76,2.23,2.23,0,0,1-.75,1.64,2.42,2.42,0,0,1-1.8.75,2.29,2.29,0,0,1-1-.22,2.24,2.24,0,0,1-.73-.6,5.19,5.19,0,0,1-.65-1.15c-.23-.53-.43-1-.59-1.39M117.35,40.6h7.7L121.17,30Z"/><path class="cls-1" d="M150.82,49.12l-5.21-20.7V57.34a4,4,0,0,1-.83,2.79,3,3,0,0,1-4.37,0,4,4,0,0,1-.85-2.8V25.14a3.22,3.22,0,0,1,1.11-2.87,5.36,5.36,0,0,1,3-.74h2a7.79,7.79,0,0,1,2.67.33,2.23,2.23,0,0,1,1.23,1.2,17.79,17.79,0,0,1,.91,2.81l4.72,17.8L160,25.87a17.79,17.79,0,0,1,.91-2.81,2.23,2.23,0,0,1,1.23-1.2,7.79,7.79,0,0,1,2.67-.33h2a5.36,5.36,0,0,1,3,.74,3.22,3.22,0,0,1,1.11,2.87v32.2a4,4,0,0,1-.84,2.79,2.83,2.83,0,0,1-2.22.93,2.77,2.77,0,0,1-2.15-.93,4,4,0,0,1-.85-2.79V28.42l-5.2,20.7c-.34,1.34-.62,2.33-.83,3a4.16,4.16,0,0,1-1.19,1.71,3.44,3.44,0,0,1-2.39.78A3.49,3.49,0,0,1,152,52.79a6.89,6.89,0,0,1-.7-1.71c-.17-.63-.34-1.28-.52-2"/><path class="cls-1" d="M174.73,41.55V29.1a3.46,3.46,0,0,1,.71-2.38,2.43,2.43,0,0,1,1.88-.8,2.5,2.5,0,0,1,1.94.8A3.46,3.46,0,0,1,180,29.1V41.83a11.42,11.42,0,0,0,.49,3.63,4.17,4.17,0,0,0,1.72,2.26,6.35,6.35,0,0,0,3.46.8c2.05,0,3.5-.54,4.34-1.63a8,8,0,0,0,1.27-5V29.1a3.48,3.48,0,0,1,.71-2.39,2.43,2.43,0,0,1,1.89-.79,2.49,2.49,0,0,1,1.91.79,3.34,3.34,0,0,1,.74,2.39V41.55a18.24,18.24,0,0,1-.6,5.07,7.71,7.71,0,0,1-2.23,3.56,8.52,8.52,0,0,1-3.28,1.91,14.4,14.4,0,0,1-4.38.6,18.08,18.08,0,0,1-5.14-.64,8.27,8.27,0,0,1-3.51-2,8.05,8.05,0,0,1-2-3.46,17.73,17.73,0,0,1-.63-5"/><path class="cls-1" d="M222.9,43.8a8.93,8.93,0,0,1-1.4,4.91,9.33,9.33,0,0,1-4.12,3.4A15.38,15.38,0,0,1,211,53.34a14.47,14.47,0,0,1-7.34-1.68,9.8,9.8,0,0,1-3.33-3.23A7.32,7.32,0,0,1,199,44.5a2.66,2.66,0,0,1,2.73-2.69,2.3,2.3,0,0,1,1.63.62,4.74,4.74,0,0,1,1.14,1.82,12.13,12.13,0,0,0,1.24,2.4,4.93,4.93,0,0,0,1.88,1.59,6.89,6.89,0,0,0,3.18.63,7.19,7.19,0,0,0,4.4-1.26,3.79,3.79,0,0,0,1.69-3.15A3.31,3.31,0,0,0,216,42a6,6,0,0,0-2.36-1.43,37.8,37.8,0,0,0-3.87-1,28.2,28.2,0,0,1-5.42-1.78A8.74,8.74,0,0,1,200.86,35a7.21,7.21,0,0,1-1.28-4.35,7.53,7.53,0,0,1,1.35-4.42,8.6,8.6,0,0,1,3.92-3,16.06,16.06,0,0,1,6-1,14.9,14.9,0,0,1,4.79.69A10,10,0,0,1,219,24.76,7.45,7.45,0,0,1,221,27.15a5.52,5.52,0,0,1,.62,2.44,2.87,2.87,0,0,1-.77,1.95,2.43,2.43,0,0,1-1.92.88,2.21,2.21,0,0,1-1.59-.53,6.87,6.87,0,0,1-1.18-1.71,7.71,7.71,0,0,0-2-2.65,5.71,5.71,0,0,0-3.69-1,6.41,6.41,0,0,0-3.81,1,3,3,0,0,0-1.44,2.49,2.52,2.52,0,0,0,.49,1.56,4.24,4.24,0,0,0,1.35,1.13,9,9,0,0,0,1.75.73q.88.27,2.91.78a46.39,46.39,0,0,1,4.61,1.32,14.37,14.37,0,0,1,3.51,1.74,7.23,7.23,0,0,1,2.25,2.6,8.29,8.29,0,0,1,.81,3.84"/><path class="cls-1" d="M225,49.9v-28a3.54,3.54,0,0,1,.84-2.57,2.87,2.87,0,0,1,2.17-.86,3,3,0,0,1,2.23.85,3.47,3.47,0,0,1,.85,2.58v28a3.55,3.55,0,0,1-.85,2.59,3,3,0,0,1-2.23.85,2.92,2.92,0,0,1-2.16-.86A3.54,3.54,0,0,1,225,49.9"/><path class="cls-1" d="M258.61,43a7.61,7.61,0,0,1-.67,2.92A10.42,10.42,0,0,1,255.85,49a10.84,10.84,0,0,1-3.64,2.45,13.1,13.1,0,0,1-5.17.95A18.22,18.22,0,0,1,243,52a10.93,10.93,0,0,1-6.07-3.68,13.66,13.66,0,0,1-1.91-3,15.67,15.67,0,0,1-1.18-3.52,18.68,18.68,0,0,1-.4-4,17.64,17.64,0,0,1,1-6.11,13,13,0,0,1,2.85-4.62,12.42,12.42,0,0,1,4.33-2.92,14,14,0,0,1,5.31-1A13.18,13.18,0,0,1,253,24.55a11.12,11.12,0,0,1,4.11,3.38,6.66,6.66,0,0,1,1.42,3.8,2.49,2.49,0,0,1-.69,1.74,2.21,2.21,0,0,1-1.68.76,2.32,2.32,0,0,1-1.65-.53,6.92,6.92,0,0,1-1.23-1.79,8.43,8.43,0,0,0-2.63-3.14,6.36,6.36,0,0,0-3.73-1.05,6.74,6.74,0,0,0-5.61,2.69c-1.4,1.79-2.1,4.32-2.1,7.62a14.08,14.08,0,0,0,.93,5.48,6.89,6.89,0,0,0,2.62,3.27,7.24,7.24,0,0,0,4,1.08,7,7,0,0,0,4.18-1.23A7.34,7.34,0,0,0,253.48,43a6.64,6.64,0,0,1,.9-1.83,2.11,2.11,0,0,1,1.74-.7,2.43,2.43,0,0,1,1.76.72,2.38,2.38,0,0,1,.73,1.77"/><path class="cls-1" d="M283.14,51.64l-1.71-4.5H266.87l-1.71,4.6a16.42,16.42,0,0,1-1.71,3.63,2.73,2.73,0,0,1-2.32.94,3.37,3.37,0,0,1-2.41-1A3,3,0,0,1,257.67,53a4.8,4.8,0,0,1,.24-1.51c.17-.52.43-1.25.81-2.18l9.15-23.25c.27-.66.58-1.46.94-2.4A12.28,12.28,0,0,1,270,21.36a4.83,4.83,0,0,1,1.63-1.51,5.74,5.74,0,0,1,5,0,4.89,4.89,0,0,1,1.64,1.48,11,11,0,0,1,1,1.94c.28.69.65,1.62,1.09,2.78l9.35,23.1a11.42,11.42,0,0,1,1.1,3.83,3.16,3.16,0,0,1-1,2.29,3.41,3.41,0,0,1-2.5,1,3.32,3.32,0,0,1-1.47-.31,2.94,2.94,0,0,1-1-.83,7.71,7.71,0,0,1-.89-1.61c-.33-.73-.59-1.37-.82-1.92M268.78,41.7h10.69l-5.39-14.78Z"/><path class="cls-1" d="M228,4.44a5.11,5.11,0,1,0,5.1,5.1,5.1,5.1,0,0,0-5.1-5.1m0,9.4a4.3,4.3,0,1,1,4.29-4.3,4.3,4.3,0,0,1-4.29,4.3"/><path class="cls-1" d="M230.46,12.13a.64.64,0,0,1-1.11.45l-1.92-1.91v1.46a.64.64,0,1,1-1.28,0V6.71a.63.63,0,0,1,.18-.45.65.65,0,0,1,.46-.2h1.5a2.15,2.15,0,0,1,2.16,2.15,2.15,2.15,0,0,1-1.58,2.08l1.39,1.38a.66.66,0,0,1,.2.46m-1.3-3.92a.86.86,0,0,0-.25-.61.83.83,0,0,0-.62-.25h-.86V9.08h.86a.85.85,0,0,0,.87-.87"/><path class="cls-1" d="M1.92,53.54H1.41A1.41,1.41,0,0,1,0,52.13V19.47a1.41,1.41,0,0,1,1.41-1.41h.51a1.41,1.41,0,0,1,1.41,1.41V52.13a1.41,1.41,0,0,1-1.41,1.41"/><path class="cls-1" d="M9.44,65.4H8.92A1.41,1.41,0,0,1,7.51,64V7.61A1.41,1.41,0,0,1,8.92,6.2h.52a1.41,1.41,0,0,1,1.4,1.41V64a1.41,1.41,0,0,1-1.4,1.41"/><path class="cls-1" d="M16.27,50h-.52a1.41,1.41,0,0,1-1.4-1.41V23a1.4,1.4,0,0,1,1.4-1.4h.52A1.41,1.41,0,0,1,17.68,23V48.57A1.41,1.41,0,0,1,16.27,50"/><path class="cls-1" d="M23.62,57.86H23.1a1.41,1.41,0,0,1-1.41-1.4V15.15a1.41,1.41,0,0,1,1.41-1.41h.52A1.4,1.4,0,0,1,25,15.15V56.46a1.4,1.4,0,0,1-1.4,1.4"/><path class="cls-1" d="M30.34,71.6h-.52a1.41,1.41,0,0,1-1.41-1.4V1.41A1.41,1.41,0,0,1,29.82,0h.52a1.41,1.41,0,0,1,1.4,1.41V70.2a1.4,1.4,0,0,1-1.4,1.4"/><path class="cls-1" d="M37.35,46.55h-.52a1.41,1.41,0,0,1-1.41-1.41V26.46a1.41,1.41,0,0,1,1.41-1.4h.52a1.4,1.4,0,0,1,1.4,1.4V45.14a1.4,1.4,0,0,1-1.4,1.41"/><path class="cls-1" d="M44.07,56.16h-.52a1.41,1.41,0,0,1-1.41-1.41V16.85a1.41,1.41,0,0,1,1.41-1.4h.52a1.4,1.4,0,0,1,1.4,1.4v37.9a1.41,1.41,0,0,1-1.4,1.41"/></g></g></svg>