<svg xmlns="http://www.w3.org/2000/svg" viewBox="0 0 108.73 632.95"><defs><style>.cls-1{fill:#7cb7df;}.cls-2{fill:#9675d2;}.cls-3{fill:#91441b;}.cls-4{fill:#eeeded;}</style></defs><g id="Capa_2" data-name="Capa 2"><g id="Capa_1-2" data-name="Capa 1"><path class="cls-1" d="M80.24,22.46l-4,2a2.44,2.44,0,0,1-1.3.34,2.56,2.56,0,0,1-1.17-.62,7.57,7.57,0,0,0-5.21-1.59,10.31,10.31,0,0,0-4,1.58,42.51,42.51,0,0,0-4.09,2.77h0c-.07-.5.25-1,.37-1.46a1.88,1.88,0,0,0-.34-1.54c-.42-.54-.25-1.28-.48-1.91-.11-.3-.31-.55-.43-.84A2.79,2.79,0,0,1,59.41,20,15.51,15.51,0,0,1,60,15.08a4,4,0,0,0,.23-.9,4.22,4.22,0,0,0-.66-2.34c.72-.19,1.48.35,2.22.24a8.1,8.1,0,0,0,1.42-.63,4.07,4.07,0,0,1,1.84-.13,12,12,0,0,0,3-3.32,4.94,4.94,0,0,0,.62-1.39,2.16,2.16,0,0,0-.16-1.5c-.13-.24-.32-.43-.43-.68-.31-.69,0-1.55-.31-2.21-.1-.19-.27-.43-.15-.61a.42.42,0,0,1,.45-.13c.63.08,1.26.49,1.86.28a2.25,2.25,0,0,0,.6-.4C71.09.9,71.6.45,72.13,0a2.53,2.53,0,0,0,.93,1.7c.36.27.85.5,1,.94.08.26,0,.55.16.77s.27.19.36.33,0,.68-.12,1a1.83,1.83,0,0,0,.7,1.84,4.58,4.58,0,0,0,1.9.79c.28.06.63.19.63.49s-.23.39-.38.57a1.19,1.19,0,0,0-.17,1.23,1.69,1.69,0,0,0,.92.9,2.84,2.84,0,0,0-.12.86.85.85,0,0,0,.45.63,1.16,1.16,0,0,0,0,1.32,2.6,2.6,0,0,1,.49,1.3,2.77,2.77,0,0,1-.35,1,1.11,1.11,0,0,0,0,1c.14.22.4.34.53.56s0,.83.09,1.25a3.39,3.39,0,0,0,.57,1.14A7.27,7.27,0,0,1,80.24,22.46Z"/><path class="cls-2" d="M86.7,53.74a.94.94,0,0,0,.5.22,12.08,12.08,0,0,1-4.33,3.22c-2.38,1.14-5,2-6.92,3.79-1.32,1.2-2.29,2.8-3.84,3.68a.72.72,0,0,1-.56.13c-.33-.09-.39-.53-.44-.86-.35-2.22-2.83-3.59-5.07-3.48a8.35,8.35,0,0,0-2.16.42c0-.16,0-.33,0-.49,0-.53,0-1,0-1.58a3.3,3.3,0,0,0-.17-1.4,3.37,3.37,0,0,1-.35-.81c0-.27.07-.57-.07-.8a1.55,1.55,0,0,0-.24-.27,1.16,1.16,0,0,1,.11-1.64,2.94,2.94,0,0,0-.42-2.11,3.57,3.57,0,0,1-.48-.55,1.43,1.43,0,0,1-.13-.65l-.09-2.39a1.76,1.76,0,0,1,.07-.79,5,5,0,0,1,.4-.66,2.51,2.51,0,0,0,.2-1.75,1.88,1.88,0,0,1-.07-.62,3,3,0,0,1,.4-.78,1.43,1.43,0,0,0,0-1.32c-.2-.37-.56-.66-.62-1.08s.31-.85.48-1.27A3.55,3.55,0,0,0,63,38c-.11-.74.18-1.58-.22-2.2a1.47,1.47,0,0,1-.21-.36,1,1,0,0,1,0-.48,3.54,3.54,0,0,0,0-1.8.94.94,0,0,0-.18-.36,2.7,2.7,0,0,0-.39-.27c-.37-.3-.3-.88-.27-1.35a5.66,5.66,0,0,0-.85-3.43,2.35,2.35,0,0,1-.44-.88,42.51,42.51,0,0,1,4.09-2.77,10.31,10.31,0,0,1,4-1.58,7.57,7.57,0,0,1,5.21,1.59,2.56,2.56,0,0,0,1.17.62,2.44,2.44,0,0,0,1.3-.34l4-2a7.19,7.19,0,0,0,.13.81c.1.4.34.86.75.88.13,0,.25,0,.38,0,.44,0,.75.44,1,.83a15.29,15.29,0,0,0,1.93,2.18,2,2,0,0,0,.6.52,4.87,4.87,0,0,0,.77.22,2.73,2.73,0,0,1,.89.54,5.52,5.52,0,0,1,.73.72,8.75,8.75,0,0,1-3.12,4,2.55,2.55,0,0,0-.69.66.78.78,0,0,0,0,.89c.32.4,1.11.3,1.27.8a2.88,2.88,0,0,1,0,.42.35.35,0,0,0,.2.34c.19.06.4-.14.58-.05s.12.31,0,.46a.61.61,0,0,0-.12.48c.05.13.21.21.25.36s-.21.37-.28.58,0,.32-.1.45a.53.53,0,0,1-.38.15,14.17,14.17,0,0,0-2.22.48.94.94,0,0,0-.3.15.8.8,0,0,0-.2.4,1.6,1.6,0,0,0-.05.75.59.59,0,0,0,.49.49c.24,0,.56-.09.66.13s-.11.35-.21.51a.85.85,0,0,0-.05.73,2.39,2.39,0,0,0,.41.62c.08.09.17.22.11.32s-.09.07-.14.1a1.48,1.48,0,0,1-.81.06V46a4.77,4.77,0,0,0,.65.88,1.52,1.52,0,0,0,1,.43,1.53,1.53,0,0,1,.37,0c.35.1.46.53.76.72a2.31,2.31,0,0,0,.53.15c.17,0,.36.19.36.38a.48.48,0,0,1-.15.29,1.37,1.37,0,0,1-.9.45c-.19,0-.44,0-.5.21s.05.27.17.36a2.26,2.26,0,0,1,.37.22c.25.24.18.64.11,1a2.7,2.7,0,0,0,0,1.38A2.87,2.87,0,0,0,86.7,53.74Z"/><path class="cls-1" d="M108.73,86.61,104,103l-13,5.3a2.8,2.8,0,0,0-1,.76,1.31,1.31,0,0,1-.35.39c-.31.22-.73.12-1.07.28a1.67,1.67,0,0,0-.7.9c-.12.28-.25.55-.38.84a.49.49,0,0,1-.1.15.79.79,0,0,1-.27.1.87.87,0,0,0-.51.62,5.87,5.87,0,0,1-.19.83,7.52,7.52,0,0,1-.53.85,2,2,0,0,0,.6,2.36,2.92,2.92,0,0,1,.66.6,3.5,3.5,0,0,1,.3.86c.24.64.85,1.08,1.13,1.7-.73.18-1.66.4-2,1.06-.16.3-.21.64-.34,1s-.23.44-.34.66a4.84,4.84,0,0,0-.28,1.24,2,2,0,0,0,0,.64,8.09,8.09,0,0,1-5.54.81,2.36,2.36,0,0,0-1.47,2.24,9.22,9.22,0,0,1-.34,2.84,4.54,4.54,0,0,1-2.82,2.18,32.49,32.49,0,0,1-5,1.28l-2.79.56a10.22,10.22,0,0,1-2.8.29,16.32,16.32,0,0,1-1.83-.33,10.64,10.64,0,0,0-7,1.24,4.14,4.14,0,0,0-.92-2.23,3.2,3.2,0,0,1-.42-.55.72.72,0,0,1,0-.67c.15-.26.49-.35.65-.61a.8.8,0,0,0,0-.69,1,1,0,0,1-.18-.65c0-.22.26-.35.41-.52.49-.57.19-1.56.75-2.06a2.93,2.93,0,0,1,.51-.32,1.59,1.59,0,0,0,.63-.83,2.64,2.64,0,0,1,.2-.58c.22-.34.72-.44.95-.78.3-.5-.11-1.18.09-1.73.1-.26.34-.46.42-.74a1.37,1.37,0,0,0-.34-1.17,1.89,1.89,0,0,1-.48-1.16,4.7,4.7,0,0,1,.25-.78,1.4,1.4,0,0,0-.36-1.32c-.86-.83-1-2.21-1.23-3.38a1.41,1.41,0,0,1,0-.84c.07-.14.18-.26.26-.4A1.36,1.36,0,0,0,57,112a3.29,3.29,0,0,1-.33-1.11c0-.72.65-1.33.6-2,0-.41-.28-.79-.25-1.19a2.59,2.59,0,0,1,.45-1,2.65,2.65,0,0,0,.29-1.26,1.83,1.83,0,0,1,.11-1.07c.1-.14.26-.25.34-.39a1.19,1.19,0,0,0,0-1,1,1,0,0,1-.22-.92,3,3,0,0,0,.11-1c0-.25-.19-.47-.23-.73-.1-.58.38-1.08.72-1.57a4.39,4.39,0,0,0,.6-3.76,2.23,2.23,0,0,0-.56-1,1.87,1.87,0,0,0-2.42.06,5.14,5.14,0,0,0,.15-2c0-.24,0-.46,0-.69a4,4,0,0,0-.05-.68,1.9,1.9,0,0,1-.09-.58,7,7,0,0,1,.24-.78c.06-.45-.23-.9-.18-1.36.26-.07.45.28.71.36a.65.65,0,0,0,.31,0,4.14,4.14,0,0,0,2.73-1.31,3,3,0,0,0,.61-2.88,1.94,1.94,0,0,1-.17-.69c0-.32.29-.57.41-.86.28-.66,0-1.36.24-2,0-.14.11-.28.14-.42a5.46,5.46,0,0,1,0-.7c.09-.29.42-.51.38-.81S61.1,78.27,61,78s.26-.78.33-1.2S61.05,76,61,75.51a4.43,4.43,0,0,1,.31-1.2c.12-.64-.14-1.41.3-1.9.18-.21.49-.38.45-.65a1,1,0,0,0-.18-.31,1.08,1.08,0,0,1-.1-1.06c.15-.33.49-.64.39-1,0-.1-.08-.2-.09-.3a.67.67,0,0,1,.1-.31c.2-.35.39-.7.58-1.06s-.37-1-.13-1.51c0-.08.09-.15.12-.24s-.12-.42-.29-.57a.29.29,0,0,1-.11-.19.27.27,0,0,1,.06-.17,4,4,0,0,0,1-2.29,3.15,3.15,0,0,1,0-.53,3.34,3.34,0,0,1,.33-.84,2.53,2.53,0,0,0,.12-.53A8.35,8.35,0,0,1,66,60.44c2.24-.11,4.72,1.26,5.07,3.48,0,.33.11.77.44.86a.72.72,0,0,0,.56-.13c1.55-.88,2.52-2.48,3.84-3.68,1.94-1.79,4.54-2.65,6.92-3.79A12.08,12.08,0,0,0,87.2,54h0a2.11,2.11,0,0,1,.25,0,.56.56,0,0,1,.43.29,3,3,0,0,0,.3.46A18.71,18.71,0,0,1,91.28,59l.11.49v5.39a3.16,3.16,0,0,1,.83,1.08,4.07,4.07,0,0,0,.48.84,4.26,4.26,0,0,1,.52.52v3.6c.46.43,1,.85,1.42,1.28a1.15,1.15,0,0,1,.38.55c0,.27-.14.53-.11.8s.27.51.36.78-.1.74-.12,1.12a2.13,2.13,0,0,0,.1.74c.12.48.25,1,.38,1.44a6.6,6.6,0,0,0,.53,1.57,1.24,1.24,0,0,1,.21.54c0,.28-.23.5-.33.76a1,1,0,0,0,.16,1c.09-.11.29,0,.33.1a.45.45,0,0,1-.11.38,2,2,0,0,0-.24.33,1.43,1.43,0,0,0,0,.74c0,.44-.08.93.19,1.28s.67.35,1,.5.8.48,1.24.65a3.74,3.74,0,0,0,1.46.19,26.61,26.61,0,0,0,2.82-.13,13.5,13.5,0,0,0,3.89-1A13.75,13.75,0,0,0,108.73,86.61Z"/><path class="cls-2" d="M89.44,150a3.22,3.22,0,0,0-.62,1.37.65.65,0,0,1-.08.28.48.48,0,0,1-.26.17c-.57.23-1.26.21-1.75.6-.14.11-.27.26-.45.27a.84.84,0,0,1-.27,0,1.43,1.43,0,0,0-1.26.37.87.87,0,0,1-.11.09c-.13,0-.22-.14-.27-.27a1.39,1.39,0,0,0-1-.82,2.08,2.08,0,0,0-1.3.13,1.66,1.66,0,0,0-.62.42,2.46,2.46,0,0,0-.39.71,3.35,3.35,0,0,0-.3,2.35,3.69,3.69,0,0,0-.48.95,1.82,1.82,0,0,1-.73.86H78.52a5.33,5.33,0,0,1,.72,1,.82.82,0,0,1,.14.45c0,.37-.45.56-.76.77a1.72,1.72,0,0,0-.7,1.29,7.69,7.69,0,0,1,0,1,3.84,3.84,0,0,1-.34.78c-.42.94-.34,2.05-.78,3a.51.51,0,0,1-.31.33,1.41,1.41,0,0,1-.41,0,.86.86,0,0,0-.67.5,20.09,20.09,0,0,0-1,2.71,1.32,1.32,0,0,1-.73.8,3.61,3.61,0,0,1-.87,0c-.29,0-.63.21-.59.5a2.21,2.21,0,0,1-.84,1.58c-.53.52-1.28.87-1.58,1.55a5.6,5.6,0,0,1-.33.8,1.78,1.78,0,0,0-.23.33c-.18.38.1.81.08,1.22s-.43.88-.65,1.33a1.75,1.75,0,0,0,.09,1.69,1.45,1.45,0,0,1,.29.6,1.12,1.12,0,0,1-.35.68,2.7,2.7,0,0,0-.64,1.79,5.78,5.78,0,0,1,.06,1.17,9.81,9.81,0,0,0-.32,1.13.39.39,0,0,1-.29.39,3,3,0,0,0-2,2.28.72.72,0,0,1,0,.21.6.6,0,0,1-.21.21,1.85,1.85,0,0,0-.66,1.49.9.9,0,0,0,.1.42,2.48,2.48,0,0,0,.45.52,2.08,2.08,0,0,1,.46,1.41c0,.46-.08.91-.11,1.37a2.57,2.57,0,0,1-1.66-.68c-.56-.54-.84-1.36-1.52-1.74s-1.8-.21-2.35-.85-.31-1.49-.81-2a2.38,2.38,0,0,0-.75-.45c-1.3-.52-2.79-1.05-4.07-.49-1,.47-1.64,1.51-2.45,2.27s-2.24,1.2-3,.37a4.92,4.92,0,0,1-.65-1.58,3.13,3.13,0,0,0-2.37-1.91,3.87,3.87,0,0,0-.48,0s0-.07,0-.11a2,2,0,0,0-.34-1.17,11.41,11.41,0,0,1-.74-1.77,1.09,1.09,0,0,1,0-.79,1.06,1.06,0,0,1,.46-.38,7.86,7.86,0,0,0,1.61-1.26c.28,0,.42-.35.58-.58a4,4,0,0,0,.68-2.7,1.15,1.15,0,0,1,0-.32c0-.3.33-.52.34-.82a2.85,2.85,0,0,1,0-.4c0-.29.36-.44.57-.65a2,2,0,0,0,.34-.66,3.19,3.19,0,0,0,.25-1.42,4.15,4.15,0,0,1-.1-.58c0-.36.24-.7.25-1.06s-.23-.69-.26-1,.24-.86.24-1.29c0-.21-.06-.42-.06-.63a2.13,2.13,0,0,1,.77-1.36c.31-.33.09-.81.09-1.26a2.48,2.48,0,0,1,.22-1,3.32,3.32,0,0,1,.93-1.6c.52-.41,1.35-.59,1.46-1.24a4.6,4.6,0,0,0,0-.74c0-.49.3-1,.26-1.48,0-.87-1-1.56-.82-2.39.08-.28.28-.5.34-.77.09-.46-.25-.89-.41-1.34a1.8,1.8,0,0,1-.07-1,.37.37,0,0,1,.12-.23.27.27,0,0,1,.18-.05,1.94,1.94,0,0,0,.8-.22c.49-.33.51-1,.77-1.57s.55-.74.58-1.19c0-.63-.63-1.27-.33-1.83.15-.27.47-.39.65-.63a1.61,1.61,0,0,0,.24-.89,3.09,3.09,0,0,1,1-2.56c.29-.19.1-.66-.1-.94s-.4-.37-.41-.63.45-.56.51-.9-.11-.48-.11-.73a.53.53,0,0,1,.18-.39c.14-.13.34-.18.48-.31.39-.29.29-.94,0-1.32a1.9,1.9,0,0,1-.28-.37c-.2-.42.09-.91,0-1.37s-.27-.64-.31-1a2.16,2.16,0,0,1,0-.67,4.13,4.13,0,0,0,0-.93,10.64,10.64,0,0,1,7-1.24,16.32,16.32,0,0,0,1.83.33,10.22,10.22,0,0,0,2.8-.29l2.79-.56a32.49,32.49,0,0,0,5-1.28A4.54,4.54,0,0,0,78.15,130a9.22,9.22,0,0,0,.34-2.84A2.36,2.36,0,0,1,80,124.87a8.09,8.09,0,0,0,5.54-.81h0a1.49,1.49,0,0,1,.12.56c0,.3-.33.47-.46.73a1.18,1.18,0,0,0-.08.59,3,3,0,0,0,.44,1.26,1.63,1.63,0,0,1,.24.45,2.67,2.67,0,0,1-.09,1,2.67,2.67,0,0,0,.62,1.61l1.34,7.14-2.53,2.11L84.79,143Z"/><path class="cls-1" d="M67,202c0,.2-.26.3-.39.45a1.56,1.56,0,0,0-.25.94,2.26,2.26,0,0,1-.86,1.46,1,1,0,0,1-1,.18c-.23-.13-.35-.41-.55-.57a.84.84,0,0,0-1.2.24.92.92,0,0,0,.33,1.2c.09.05.2.12.17.22a.2.2,0,0,1-.11.09,4.78,4.78,0,0,0-.81.42.73.73,0,0,0-.29.81c.22.55-.43,1.12-.6,1.7s0,1-.17,1.49a5.21,5.21,0,0,1-.24.66c-.32.9-.13,2-.68,2.75a.81.81,0,0,0-.15.27c-.12.43.56.76.47,1.19a.82.82,0,0,1-.14.28c-.22.3-.42.6-.64.89a.18.18,0,0,1-.09.08c-.1.07-.23,0-.32-.08s-.15-.21-.27-.26-.42.07-.57.22a3.38,3.38,0,0,0-.95,2c-.05.36,0,.73-.1,1.08a2.66,2.66,0,0,0-.12.79c0,.1.06.2.08.31a1.94,1.94,0,0,1-.13.82,11.92,11.92,0,0,0-.15,3.91c.25-.12.46.17.53.43a1.25,1.25,0,0,0,.32.72c.09.06.21.09.31.15.33.21.3.7.19,1.07s-.24.81,0,1.13.73.39,1.1.57.67.52,1.07.62.81,0,1,.32a.74.74,0,0,1-.16.73.28.28,0,0,1-.12.14c-.07,0-.14,0-.21,0a1.26,1.26,0,0,0-1.22,0,.86.86,0,0,0-.12,1.14c.15.21.37.36.52.55a2.35,2.35,0,0,1,.31.56,2.55,2.55,0,0,1,.29,1c0,.22,0,.44,0,.66a1.91,1.91,0,0,0,.08.57,5.85,5.85,0,0,1-3-1.12A22.94,22.94,0,0,0,55.91,233a3.91,3.91,0,0,0-3.91.13c-.76.48-1.32,1.22-2.08,1.71a5.73,5.73,0,0,1-4.3.52.89.89,0,0,1-.1-.57,3.13,3.13,0,0,0,.08-1.05c-.08-.33-.34-.63-.28-.95a2,2,0,0,1,.23-.47,2,2,0,0,0-.1-1.67,1,1,0,0,1-.11-.36c0-.3.24-.53.34-.81a1.54,1.54,0,0,0-.09-.94,3.88,3.88,0,0,0-.33-.88,3,3,0,0,1-.25-.47c-.17-.48.08-1-.07-1.51-.09-.3-.33-.54-.41-.83a4.74,4.74,0,0,1-.07-.67,3.93,3.93,0,0,0-.28-.86,5.43,5.43,0,0,1-.38-1.81,1,1,0,0,0,.09-1.29c-.22-.37-.65-.61-.75-1a4.44,4.44,0,0,1,.07-1,6,6,0,0,0-.07-.73,6.44,6.44,0,0,1,.09-1.07,7.24,7.24,0,0,0-.38-2.71,4.87,4.87,0,0,1-.32-1.55,5.81,5.81,0,0,0,.06-1.66c0-.15-.11-.3-.14-.45a1.48,1.48,0,0,1,0-.42c.19-1.58-.13-3.23.34-4.75a2.07,2.07,0,0,0,1.66.29,1.73,1.73,0,0,0,.93-1.39.49.49,0,0,1,.08-.24.57.57,0,0,1,.28-.14,1.89,1.89,0,0,0,1.15-2.53,1.54,1.54,0,0,1-.24-.7,1,1,0,0,1,.54-.69,1.82,1.82,0,0,0,.71-.54,1.62,1.62,0,0,0,.18-.82c0-.36,0-.73,0-1.1a.92.92,0,0,0-.11-.57c-.12-.15-.33-.22-.46-.38a.88.88,0,0,1-.16-.62,2.17,2.17,0,0,1,.2-1.13c.13-.21.32-.37.44-.6a.94.94,0,0,0-.44-1.23c-.29-.61.15-1.49-.07-2.13a4.85,4.85,0,0,1-.27-.62c-.08-.36.08-.74,0-1.1s-.6-.67-1-.91a4.22,4.22,0,0,1-.9-.79,1,1,0,0,1-.24-.43c-.07-.32.14-.61.22-.93a3.87,3.87,0,0,1,.48,0,3.13,3.13,0,0,1,2.37,1.91,4.92,4.92,0,0,0,.65,1.58c.76.83,2.17.39,3-.37s1.42-1.8,2.45-2.27c1.28-.56,2.77,0,4.07.49a2.38,2.38,0,0,1,.75.45c.5.54.33,1.47.81,2s1.61.43,2.35.85,1,1.2,1.52,1.74a2.57,2.57,0,0,0,1.66.68s0,.1,0,.14a2.31,2.31,0,0,0,.08.94,1.19,1.19,0,0,0,.6.7,2.46,2.46,0,0,1,.38.14.32.32,0,0,1,.18.33.62.62,0,0,1-.15.21,1.07,1.07,0,0,0-.13,1.24,33.28,33.28,0,0,1-.68,3.3,1.14,1.14,0,0,1-.13.35,2.75,2.75,0,0,0-.22.26,1,1,0,0,0,0,1,.61.61,0,0,0,.2.29.5.5,0,0,0,.26.06c.24,0,.47-.08.71-.06S67.07,201.81,67,202Z"/><path class="cls-1" d="M69.16,254.06c-.09.05-.19,0-.29,0a.34.34,0,0,0-.23.63c.06,0,.15.06.18.14a.57.57,0,0,1,0,.13,8.74,8.74,0,0,1-.87,2.26,2.88,2.88,0,0,0-.09,1.75,4,4,0,0,1,0,.69c0,.53-.49,1-.3,1.54a1.14,1.14,0,0,1,.13.3c.09.34-.27.71-.11,1,.09.15.29.24.32.42s-.11.3-.21.44a.9.9,0,0,0,.39,1.25c.12.05.27.08.34.19a.42.42,0,0,1,0,.22,1.86,1.86,0,0,1-.17.84c-.15.34-.41.66-.35,1a1.25,1.25,0,0,0,.35.58l.66.74c-.33.36-1,0-1.41.26-.17.13-.23.37-.4.51a2.29,2.29,0,0,1-.69.26l-.11.06a6.44,6.44,0,0,0-2.91-2.1,5.12,5.12,0,0,1-2.24-1.06c-.38-.43-.53-1-.9-1.45-1.08-1.27-3.26-.58-4.32.72-.56.68-1,1.55-1.83,1.92a4.23,4.23,0,0,1-3-.34,23.54,23.54,0,0,0-6.7-1.29,12,12,0,0,1-3.59-.43c.06-.12.11-.25.17-.37a2.43,2.43,0,0,1,.18-.32,4.75,4.75,0,0,0,5.67-4.38c.08-1.36-.35-2.94.59-3.92.55-.58,1.53-.87,1.66-1.67a3.81,3.81,0,0,0-.2-1.23,2.61,2.61,0,0,1,1.47-2.55,7.53,7.53,0,0,1,3.05-.7,1.88,1.88,0,0,1,.3-2.23,1.94,1.94,0,0,1,2.24-.28,4.33,4.33,0,0,0,1.18.7,9.67,9.67,0,0,0,1.31-.12c.75,0,1.32.64,1.88,1.15s1.37.95,2,.57c.42-.25.69-.8,1.17-.81s.57.26.84.44a2,2,0,0,0,.63.29h0a10.84,10.84,0,0,0,0,1.51,2.06,2.06,0,0,0,.3,1.13,3.65,3.65,0,0,1,.4.5c.16.35,0,.83.33,1.07s.7,0,1-.17a4.3,4.3,0,0,1,1-.4c.39-.09.89-.07,1,.3A.22.22,0,0,1,69.16,254.06Z"/><path class="cls-2" d="M65.72,246.75a.87.87,0,0,1,0,.28c0,.19-.1.38-.16.56a12.45,12.45,0,0,0-.49,2.24,2,2,0,0,1-.63-.29c-.27-.18-.51-.44-.84-.44s-.75.56-1.17.81c-.64.38-1.46-.07-2-.57s-1.13-1.14-1.88-1.15a9.67,9.67,0,0,1-1.31.12,4.33,4.33,0,0,1-1.18-.7,1.94,1.94,0,0,0-2.24.28,1.88,1.88,0,0,0-.3,2.23,7.53,7.53,0,0,0-3.05.7,2.61,2.61,0,0,0-1.47,2.55,3.81,3.81,0,0,1,.2,1.23c-.13.8-1.11,1.09-1.66,1.67-.94,1-.51,2.56-.59,3.92a4.75,4.75,0,0,1-5.67,4.38.62.62,0,0,1,.29-.24c.33-.11.38-.65.3-1a1.52,1.52,0,0,1-.1-.47,1,1,0,0,1,.16-.34,8.44,8.44,0,0,1,1.71-1.82,2,2,0,0,0,.68-.76,5.83,5.83,0,0,0,.1-.73,6.52,6.52,0,0,1,.33-.83,3.14,3.14,0,0,0-.74-2.95,1.06,1.06,0,0,1-.31-.61c0-.44.56-.72.6-1.15s-.23-.68-.08-1,.3-.24.46-.35.29-.34.17-.49a.54.54,0,0,0-.24-.09,1.05,1.05,0,0,0-.65.16.61.61,0,0,1-.14.07.25.25,0,0,1-.24-.2.66.66,0,0,1,0-.34.47.47,0,0,1,.47-.37l.25,0a.22.22,0,0,0,.21-.12.17.17,0,0,0,0-.17.61.61,0,0,0-.39-.39c-.15,0-.34-.07-.4-.21.39-.76,1.36-1,2-1.61a.47.47,0,0,0,.15-.25c0-.15-.08-.31-.07-.46s.3-.43.42-.67c.23-.44-.2-1-.05-1.44,0-.1.08-.22,0-.29a1.05,1.05,0,0,0-.11-.07c-.23-.11-.16-.48,0-.66s.42-.32.54-.55a2.06,2.06,0,0,0,.08-.93c0-.53.33-1.06.15-1.57a3.6,3.6,0,0,0-.31-.54.7.7,0,0,1-.09-.59c.08-.18.27-.29.32-.47s-.07-.44-.06-.66.34-.49.45-.77A.79.79,0,0,0,47,238a1.6,1.6,0,0,0-.59-.47c-.13-.07-.29-.16-.33-.3s.06-.3.12-.46a1,1,0,0,0-.35-1.17.64.64,0,0,1-.23-.27,5.73,5.73,0,0,0,4.3-.52c.76-.49,1.32-1.23,2.08-1.71a3.91,3.91,0,0,1,3.91-.13,22.94,22.94,0,0,1,2.22,1.74,5.85,5.85,0,0,0,3,1.12.43.43,0,0,0,.05.16.55.55,0,0,0,.28.38c.1,0,.2,0,.31.07a.69.69,0,0,1,.42.54,4.41,4.41,0,0,1,0,.73,2.41,2.41,0,0,0,1,1.84,1.39,1.39,0,0,1,.57.53c.2.55-.56,1.17-.26,1.67a4.48,4.48,0,0,0,.4,2.44,6.82,6.82,0,0,0,.91,1.1,7.15,7.15,0,0,1,.75,1.13A.91.91,0,0,1,65.72,246.75Z"/><path class="cls-2" d="M66.4,269.29a2,2,0,0,0-.72,1.43,2.72,2.72,0,0,1-.17.82c-.17.27-.49.37-.74.53a1.65,1.65,0,0,0-.7,1.07c-.08.52-.7.65-.92,1.13a4.65,4.65,0,0,0-.09,1.06,3.5,3.5,0,0,1-.69,1.23,1.23,1.23,0,0,0-.18,1.31c.15.22.42.36.48.62s-.15.54-.32.76a3,3,0,0,0-.5,1,3.73,3.73,0,0,1-.21.67c-.08.18-.21.33-.27.51a.41.41,0,0,0,0,.16c-1.66-.94-3-2.69-4.92-2.73-.53,0-1.06.12-1.59.14-1.59.05-3.15-.93-4.73-.63-1.38.26-2.48,1.47-3.89,1.56-.69,0-1.36-.21-2-.23a17.19,17.19,0,0,1-2.77.1,4.46,4.46,0,0,1-2.46-2.13l.23-.15c.37-.24.3-.85.13-1.25a2.45,2.45,0,0,1-.2-.48c-.11-.49.34-.95.28-1.45,0-.28-.23-.52-.24-.8s.14-.48.1-.73-.08-.25-.1-.39c0-.49.63-.72.81-1.18a1.26,1.26,0,0,0,0-.47c0-.4,0-.79,0-1.19a4.92,4.92,0,0,0-.08-1,4,4,0,0,1-.11-.6,2.32,2.32,0,0,1,.28-1l.82-1.77a12,12,0,0,0,3.59.43,23.54,23.54,0,0,1,6.7,1.29,4.23,4.23,0,0,0,3,.34c.82-.37,1.27-1.24,1.83-1.92,1.06-1.3,3.24-2,4.32-.72.37.43.52,1,.9,1.45a5.12,5.12,0,0,0,2.24,1.06A6.44,6.44,0,0,1,66.4,269.29Z"/><path class="cls-1" d="M61.25,297.94c.12.14.3.27.3.46s-.15.29-.25.42a1.81,1.81,0,0,0-.2,1.26c-.64-.07-1.21-.69-1.81-.51a1,1,0,0,0-.62,1,2.16,2.16,0,0,1,0,.44c-.07.38-.47.61-.75.88a1.93,1.93,0,0,0-.56,1.3,3.64,3.64,0,0,1,0,.66.59.59,0,0,1-.36.5,1.38,1.38,0,0,1-.7-.14,1.17,1.17,0,0,0-1.37.74c-.09.3-.09.7-.37.83a1.31,1.31,0,0,1-.59,0h0a9.71,9.71,0,0,0-.6-.83,2.42,2.42,0,0,0-2.39-1c-1.18.36-1.81,2.07-3,1.95-1.39-.15-1.81-2.55-3.2-2.45-.39,0-.73.27-1.12.31-.78.09-1.41-.6-1.8-1.28a4.54,4.54,0,0,0-1.36-1.87c-1.45-.85-3.1.69-4.74,1a4.43,4.43,0,0,1-3.61-1.19,9.64,9.64,0,0,1-1.65-1.95,3.36,3.36,0,0,1,.41-.8,4.84,4.84,0,0,1,.94-1.17,4.22,4.22,0,0,0,.51-.42,2.33,2.33,0,0,0,.47-1.16,2.56,2.56,0,0,0,0-1.37c-.18-.49-.66-.85-.73-1.36a1.72,1.72,0,0,1,.78-1.44,2.44,2.44,0,0,0,1-1.35,1,1,0,0,1,0-.93,3.45,3.45,0,0,1,.61-.81,4.11,4.11,0,0,0,1-1.62,2.76,2.76,0,0,1,.23-.72,1.79,1.79,0,0,1,.61-.51,2.47,2.47,0,0,0,1.29-2.08,7.22,7.22,0,0,0-.13-.79,2.33,2.33,0,0,1,.43-1.66.9.9,0,0,0,.2-.34.82.82,0,0,0,0-.27,2.35,2.35,0,0,1,.82-1.94,4.46,4.46,0,0,0,2.46,2.13,17.19,17.19,0,0,0,2.77-.1c.68,0,1.35.26,2,.23,1.41-.09,2.51-1.3,3.89-1.56,1.58-.3,3.14.68,4.73.63.53,0,1.06-.15,1.59-.14,1.9,0,3.26,1.79,4.92,2.73-.09.59.45,1.26.17,1.83a1.1,1.1,0,0,1-1.11.44h-.19A.52.52,0,0,0,60,284c-.32.35-.89.39-1.21.75a1.15,1.15,0,0,0-.19,1,1.82,1.82,0,0,0,2,1.31,14.47,14.47,0,0,1-.22,1.47c-.06.14-.18.3-.13.44s.39.27.43.48a1.24,1.24,0,0,0,0,.18.43.43,0,0,0,.15.18,1.68,1.68,0,0,1,.48,1.15.38.38,0,0,1-.06.24c-.19.26-.67-.08-.89.15s0,.46.17.63.45.47.67.7a.65.65,0,0,1,.16.21c.12.3-.19.57-.33.86-.07.12-.07.3.05.35s.11,0,.16,0,.19.19.22.33a.81.81,0,0,1,0,.63,1.36,1.36,0,0,1-.24.24,1.08,1.08,0,0,0-.21,1.25,1.05,1.05,0,0,1,.18.44,1.47,1.47,0,0,1-.06.27A.73.73,0,0,0,61.25,297.94Z"/><path class="cls-2" d="M52.7,307a1.89,1.89,0,0,0-.1.41c0,.5.3,1.06,0,1.5a.93.93,0,0,0-.47,0,.33.33,0,0,0-.23.38v1.81a1,1,0,0,0-.52,1.41,1.4,1.4,0,0,1,.26.46.61.61,0,0,1-.26.5c-.15.13-.33.21-.48.34a1,1,0,0,0-.33.63.77.77,0,0,0,.29.64c.22.15.52.16.7.35a.9.9,0,0,1,.17.32c.08.19.16.38.22.57s.14.39,0,.54-.3.15-.41.27.08.71-.06,1-.48.36-.58.64,0,.31-.11.41a1.83,1.83,0,0,1-.26.16c-.17.13-.12.4,0,.6a4.67,4.67,0,0,0,1,2c.23.21.52.44.52.75s-.34.61-.29.95a1.89,1.89,0,0,0,.13.33.3.3,0,0,1,0,.34c-.33.32-.82.54-1,1a1.59,1.59,0,0,0,.1,1.33,3.6,3.6,0,0,1,.39.72c.06.2,0,.42.11.62a1.29,1.29,0,0,1,.08.28c0,.3-.3.51-.41.8a.58.58,0,0,0,.15.62.57.57,0,0,0,.62.12c.1,0,.24-.11.32,0a.23.23,0,0,1,0,.18,1.71,1.71,0,0,0,.33,1.08,1.73,1.73,0,0,1,.34.52c.06.25-.06.52,0,.77a2.85,2.85,0,0,0,.17.46,2.41,2.41,0,0,1,.07.71,9.08,9.08,0,0,1-2.64-.5,3.09,3.09,0,0,0-1.32-.29c-1.74.21-2,3.49-3.76,3.25a10.81,10.81,0,0,0-.91-3.44,3.72,3.72,0,0,0-2.73-2.08c-1.58-.17-3.49,1-4.59-.18-.88-.9-.6-2.77-1.79-3.17a3.28,3.28,0,0,0-.89-.07c-1.6,0-3-1.05-4.52-1.47s-3.67.18-3.77,1.76c0,.48.12.95.07,1.42-.13,1.17-1.54,2.06-1.26,3.19.22.9,1.44,1.44,1.32,2.36-.16,1.18-2.44,1.49-2.11,2.65.1.34.44.59.57.92.27.71-.46,1.38-1.1,1.78-.27.17-.53.33-.8.48-.07-.21-.33-.33-.51-.48a1.21,1.21,0,0,1-.31-.91c0-.34.11-.65.14-1a6.17,6.17,0,0,1,.26-2.29c.63-1.18,0-2.76-.69-3.92-.49-.91-1.2-1.65-1.74-2.52a3.51,3.51,0,0,1-.57-2.91c.15-.46.45-.86.58-1.34a3.39,3.39,0,0,0-.36-2.26,3.82,3.82,0,0,1-.37-1.22c0-.26,0-.5,0-.76s-.09-.38-.1-.57a.56.56,0,0,1,.22-.51.52.52,0,0,1,.35-.05,9.15,9.15,0,0,1,1.68.66,3.68,3.68,0,0,0,2.34-.45,5.82,5.82,0,0,0,1.74-1.05,2.05,2.05,0,0,0,.65-1.84,3.22,3.22,0,0,0-.45-1.12,1.51,1.51,0,0,1-.27-.42c-.17-.42.14-.88.14-1.33a2.9,2.9,0,0,0-.24-.86,1.09,1.09,0,0,1,0-.87,1,1,0,0,1,.79-.4,2.66,2.66,0,0,0,.89-.18,1.9,1.9,0,0,0,.82-1.61,2.28,2.28,0,0,0,0-.69c-.05-.17-.11-.33-.15-.5a.5.5,0,0,1,.12-.47,1.1,1.1,0,0,1,.3-.16,1,1,0,0,0,.46-.7c.05-.28,0-.57.08-.85a6.31,6.31,0,0,1,.75-1.83,3.22,3.22,0,0,0,.46-1.9c-.09-.62-.11-1.3-.17-1.92a1.67,1.67,0,0,1,.09-.89,6.4,6.4,0,0,0,.42-.64,2.64,2.64,0,0,0,.06-.63,1.19,1.19,0,0,1,.05-.26,9.64,9.64,0,0,0,1.65,1.95,4.43,4.43,0,0,0,3.61,1.19c1.64-.31,3.29-1.85,4.74-1a4.54,4.54,0,0,1,1.36,1.87c.39.68,1,1.37,1.8,1.28.39,0,.73-.28,1.12-.31,1.39-.1,1.81,2.3,3.2,2.45,1.23.12,1.86-1.59,3-1.95a2.42,2.42,0,0,1,2.39,1,9.71,9.71,0,0,1,.6.83h0a1.06,1.06,0,0,0-.81.41A2.11,2.11,0,0,0,52.7,307Z"/><path class="cls-1" d="M56.11,340.6a.58.58,0,0,1-.14.5,3.59,3.59,0,0,1-.39.39,1.72,1.72,0,0,0-.47,1.35c0,.19.06.43-.1.56a.48.48,0,0,1-.41.07l-1.45-.17c-.26.24-.63.54-.89.78a1.1,1.1,0,0,1-.35.26c-.19.06-.41,0-.6.08a1.62,1.62,0,0,0-.84.71,1.36,1.36,0,0,1-.3.33.8.8,0,0,1-.72.08,1.25,1.25,0,0,1-.61-.42,3.42,3.42,0,0,0-.46,1.87,1.78,1.78,0,0,0,.06.57c.05.15.15.28.2.42a1.74,1.74,0,0,1,0,.85c-.05.34-.09.68-.14,1a1.63,1.63,0,0,0,0,.54c.07.36.39.64.48,1s-.16.92-.17,1.38.11.7-.14.91l-.22.14a.87.87,0,0,0-.18.86,1.16,1.16,0,0,1-.07.9c-.18.2-.49.25-.68.44a1,1,0,0,0,.06,1.35,1.61,1.61,0,0,1,.24.34.33.33,0,0,1,0,.37,7.31,7.31,0,0,1-1.23-1,6.86,6.86,0,0,0-1.42-1.23c-2.13-1.14-4.66,1.2-7,.74-1.67-.32-3.13-2-4.75-1.51-.69.21-1.45.8-2,.37s-.32-1.29-.77-1.75-1.47-.09-2.09.39l-1.19,1c-.18-.17-.38-.33-.39-.56a2.7,2.7,0,0,1,0-.28,1.54,1.54,0,0,0-.24-.73,2.94,2.94,0,0,1-.31-1.51,7.53,7.53,0,0,0-.72-2.4c-.21-.6-.42-1.2-.61-1.8s-.42-1.2-.66-1.8c-.48-1.16-1.1-2.26-1.66-3.39a3.53,3.53,0,0,1-.34-.94,1.28,1.28,0,0,1,.2-.95c.13-.16.34-.31.34-.52a.3.3,0,0,0,0-.1c.27-.15.53-.31.8-.48.64-.4,1.37-1.07,1.1-1.78-.13-.33-.47-.58-.57-.92-.33-1.16,1.95-1.47,2.11-2.65.12-.92-1.1-1.46-1.32-2.36-.28-1.13,1.13-2,1.26-3.19.05-.47-.11-.94-.07-1.42.1-1.58,2.23-2.18,3.77-1.76S33,326.94,34.55,327a3.28,3.28,0,0,1,.89.07c1.19.4.91,2.27,1.79,3.17,1.1,1.15,3,0,4.59.18a3.72,3.72,0,0,1,2.73,2.08,10.81,10.81,0,0,1,.91,3.44c1.74.24,2-3,3.76-3.25a3.09,3.09,0,0,1,1.32.29,9.08,9.08,0,0,0,2.64.5,1.81,1.81,0,0,0,.06.57,7.36,7.36,0,0,1,.34.93,18.7,18.7,0,0,0,.62,3.94.57.57,0,0,0,.13.27c.09.09.23.11.31.21s.08.27.14.4.42.33.69.39S56,340.33,56.11,340.6Z"/><path class="cls-2" d="M47.82,358.07c-.15.18-.44.08-.65,0a1.48,1.48,0,0,0-1.07-.24,1.55,1.55,0,0,0-.67.52,1.79,1.79,0,0,0-.31.48.54.54,0,0,0,.08.55.67.67,0,0,1,0,.2A1.88,1.88,0,0,0,45.1,361a2,2,0,0,1,.2.34c.16.39-.06,1,.3,1.2.15.09.33.09.47.2a.54.54,0,0,1,0,.69,4.37,4.37,0,0,0-.44.62c-.18.48.13,1.14-.28,1.47s-1.16-.13-1.53.26a.78.78,0,0,0-.08.73,2,2,0,0,1,.18.74c0,.24-.13.45-.15.69a1.55,1.55,0,0,0,.44,1,12.05,12.05,0,0,0,.89,1,.4.4,0,0,1,.13.18.32.32,0,0,1-.18.33c-.12.06-.26.08-.38.13-.53.17-.78.75-1,1.26a2.31,2.31,0,0,0-.22,1.35,4.93,4.93,0,0,1,.29.84v0a18.26,18.26,0,0,1-7.36,2.11,4.53,4.53,0,0,1-3.18-.68c-1.19-1-1.44-2.89-2.83-3.53s-3.21.65-4.88.65c-1.44,0-2.65-1-3.9-1.63a5.35,5.35,0,0,0-1.61-.58.66.66,0,0,1,.62.08c.15-.21.31-.44.47-.65a.49.49,0,0,0,.14-.29c0-.13-.06-.25,0-.38s.23-.34.36-.5a1.67,1.67,0,0,0,.27-1.12,2.17,2.17,0,0,0-.07-.57,4.21,4.21,0,0,0-.3-.55.75.75,0,0,1-.13-.59.37.37,0,0,1,.49-.25c.2.12.23.48.47.51s.29-.19.35-.36l.34-.94a.32.32,0,0,1,.12-.2.34.34,0,0,1,.24-.06,1.94,1.94,0,0,1,.93.28.39.39,0,0,0,.27.08c.18,0,.22-.25.22-.43,0-.88,0-1.74,0-2.62a1.32,1.32,0,0,1,.31-1.07,2,2,0,0,0,.5-1.24c0-.11,0-.22.07-.33.17-.45.75-.7.77-1.18,0-.26-.16-.5-.16-.75a1,1,0,0,1,.42-.7c.22-.18.48-.3.68-.5a.73.73,0,0,0,.25-.76.87.87,0,0,0-.25-.32l1.19-1c.62-.48,1.54-.95,2.09-.39s.25,1.35.77,1.75,1.33-.16,2-.37c1.62-.51,3.08,1.19,4.75,1.51,2.37.46,4.9-1.88,7-.74a6.86,6.86,0,0,1,1.42,1.23A7.31,7.31,0,0,0,47.82,358.07Z"/><path class="cls-2" d="M81.94,574.24a1.4,1.4,0,0,0-1.27-.82,4.53,4.53,0,0,1-.9,0c-.36-.1-.61-.44-1-.55s-.84.08-1.27.08a2.71,2.71,0,0,1-1.75-1,2.75,2.75,0,0,0-1.72-1,4.09,4.09,0,0,0-2,.83,1.27,1.27,0,0,0-.34.2c-.57.5,0,1.64-.64,2.1a2.69,2.69,0,0,1-.57.26c-.18.1-.35.3-.29.5s.39.33.39.56a.3.3,0,0,1,0,.16,1.54,1.54,0,0,1-2,.74c-.36-.16-.71-.47-1.08-.36a13.92,13.92,0,0,0-2.43,1.24,1.51,1.51,0,0,0-.47.3.59.59,0,0,0-.2.51c0,.11.08.22.05.33s-.24.2-.4.21a3.71,3.71,0,0,0-1.49.08,2.16,2.16,0,0,0-.62.47,2.39,2.39,0,0,1-1.28.68.82.82,0,0,1,.25-.73S61,579,61,579a.16.16,0,0,0-.12-.16,1,1,0,0,0-1,.29,3.49,3.49,0,0,1-.8.69,1.72,1.72,0,0,0,.2.59.42.42,0,0,1-.65-.13c0-.1-.07-.23-.17-.23a.21.21,0,0,0-.11,0,1.29,1.29,0,0,0-.38.74.11.11,0,0,0,0,.11c0,.09.14.1.23.1s.43,0,.49.22-.08.31-.24.37a1.93,1.93,0,0,1-.49.08.46.46,0,0,0-.38.27c-.07.23.16.45.2.68a.44.44,0,0,1-.28.49c-.06,0-.14.06-.14.12a.16.16,0,0,0,0,.08.62.62,0,0,0,.3.18c.53.16.44.91.21,1.41a6.49,6.49,0,0,0-.71,1.45,3.62,3.62,0,0,0,0,.87,5.5,5.5,0,0,1-.63,2.84,1.63,1.63,0,0,0-.27.7,1.8,1.8,0,0,0,.28.91,5.37,5.37,0,0,1,.54,2.14,11.68,11.68,0,0,1-.1,1.77,5.33,5.33,0,0,1-.59,2.19A2.78,2.78,0,0,1,54.45,599a2.93,2.93,0,0,1-2.24-.85,3.84,3.84,0,0,0-.69-.65,3.2,3.2,0,0,0-1.69-.25,1.48,1.48,0,0,1-1.44-.73,1.61,1.61,0,0,0-.15-.36c-.29-.38-1,.12-1.4-.08-.23-.11-.33-.39-.54-.52a2.94,2.94,0,0,0-.55-.18,1.76,1.76,0,0,1-.7-.51,5,5,0,0,1-1.25-1.76,3.8,3.8,0,0,1-1.67.22,2.22,2.22,0,0,1-1-.32,5,5,0,0,1-.58-.54c-1.19-1.08-3-1.14-4.29-2.11a4.71,4.71,0,0,0-1.09-.78,6.53,6.53,0,0,1-1-.3,2,2,0,0,1-.75-1,.7.7,0,0,1,0-.67c.1-.14.31-.19.41-.36s-.22-.57-.54-.67-.6-.16-.7-.43a2.27,2.27,0,0,1-.06-.25h.7c.13,0,.3,0,.33-.16s-.29-.32-.28-.54.18-.23.33-.25.33,0,.42-.13a.43.43,0,0,0,.06-.31,1.25,1.25,0,0,0-.9-.85,8.32,8.32,0,0,1-1.22-.41,1.73,1.73,0,0,1-.58-.56.83.83,0,0,1,.05-1.06c.19-.15.48-.17.64-.37a.82.82,0,0,0,.07-.58.61.61,0,0,0-.14-.36c-.17-.15-.43,0-.64,0a2.12,2.12,0,0,1-1.27-.26.4.4,0,0,1-.16-.08.38.38,0,0,1-.08-.36c.08-.29.39-.44.66-.58s.54-.39.5-.69-.4-.45-.56-.73,0-1-.24-1.35a.75.75,0,0,1,.06-.9,1,1,0,0,0,.24-.33c.1-.32-.31-.56-.48-.86a1,1,0,0,1,.32-1.17,4.09,4.09,0,0,0,.44-.37.54.54,0,0,0,.13-.53c-.11-.24-.45-.35-.45-.61s.24-.35.33-.56a.74.74,0,0,0-.21-.67c-.38-.48-.94-.92-1-1.53a6.82,6.82,0,0,1,.09-.79,3.2,3.2,0,0,0-1-2c-.55-.7-1-1.44-1.53-2.18a9.76,9.76,0,0,1-.87-1.5,2.31,2.31,0,0,1-.21-.85,3.47,3.47,0,0,1,.11-.73c.11-.41.21-.82.32-1.23a1.2,1.2,0,0,0,1.58-.67A2.84,2.84,0,0,0,28,557a2,2,0,0,1-.1-.32c-.05-.3.18-.58.17-.88a.55.55,0,0,0-.71-.45.79.79,0,0,1-.23.08c-.3,0-.28-.47-.48-.67a3.64,3.64,0,0,0,.11,1.22,1.58,1.58,0,0,1-.3,1,.62.62,0,0,1-.28.22c-.23.07-.46-.14-.56-.36s-.1-.48-.19-.71a.82.82,0,0,0-.73-.59.54.54,0,0,0-.5.69c.06.13.19.3.08.39a.2.2,0,0,1-.13,0,.94.94,0,0,1-1-1.08c.06-.25.21-.46.29-.7s0-.55-.19-.65a1.54,1.54,0,0,0,.7-.52.52.52,0,0,0-.16-.76c-.33-.14-.68.27-.68.63a.38.38,0,0,1-.06.28.29.29,0,0,1-.31,0,1.11,1.11,0,0,1-.61-.89,1.09,1.09,0,0,1,.5-1,2.65,2.65,0,0,0,.4-.24.35.35,0,0,0,.1-.43c-.09-.15-.36-.19-.34-.37s.1-.17.18-.22a1.3,1.3,0,0,0,.52-1,1.26,1.26,0,0,0-.57-1,2.3,2.3,0,0,1-.62-.41c-.36-.44,0-1.17-.31-1.65s-.7-.47-.82-.85,0-.49-.12-.71-.55-.42-.65-.73,0-.47-.07-.67a.74.74,0,0,0-.38-.32l-1.18-.63a2,2,0,0,1-.75-1.23c-.15-.45-.43-.93-.89-1l.22-.44a.66.66,0,0,1-.64.15.63.63,0,0,1-.39-.51c0-.29.15-.59.07-.87s-.5-.48-.85-.51a1.41,1.41,0,0,1-1-.33c-.34-.39-.15-1.16-.62-1.39-.28-.13-.6.05-.9.05-.62,0-1.09-.6-1.7-.66a2.9,2.9,0,0,1-.51,0,1.56,1.56,0,0,1-.93-.73c0,.25-.07.49-.1.73a.2.2,0,0,1-.06.14.23.23,0,0,1-.18,0,1.46,1.46,0,0,1-1.05-1.69,1,1,0,0,0-.57.28l-1.16.94a1.14,1.14,0,0,1,0-1.34,2,2,0,0,0,.31-.41c.14-.36-.15-.72-.45-1s-.35-.24-.4-.43c-.1-.36.3-.64.65-.78s.77-.31.79-.69-.26-.52-.48-.71-.45-.49-.32-.76c-.1-.67.35-1.4.09-2-.15-.39-.58-.66-.6-1.08a1.39,1.39,0,0,0,0-.5c-.15-.35-.77-.24-.93-.6s.35-.71.25-1.09a.72.72,0,0,0-.2-.3l-1.06-1.14c-.15-.16-.33-.38-.25-.6s.3-.28.42-.45,0-.69-.15-1a8.31,8.31,0,0,0-1.13-1.38c-.32-.33-.7-.68-.7-1.13s.58-1,.47-1.56c-.07-.36-.41-.6-.55-.93s0-.89-.11-1.33a3.25,3.25,0,0,1-.08-.43c0-.44.48-.74.92-.78s.37-.62.26-.9a3.15,3.15,0,0,1-.36-.82c0-.58.69-1.06.52-1.62-.11-.33-.54-.53-.55-.88s.17-.47.18-.72c0-.43-.53-.68-.66-1.09a.73.73,0,0,1,.27-.77,1,1,0,0,1,.83-.17.74.74,0,0,0,.46,0c.3-.11.25-.56.4-.84a.56.56,0,0,1,.75-.19c.18.11.3.33.51.37s.48-.27.5-.54a7.86,7.86,0,0,1-.05-.83c.06-.54.59-.91.73-1.42a1.82,1.82,0,0,0-.76-1.67,1.54,1.54,0,0,0-.52-.35,5.16,5.16,0,0,0-.79-.08c-.26,0-.54-.22-.56-.48s.47-.53.83-.46.74.23,1.09.1.41-.33.62-.52A2.6,2.6,0,0,1,8.49,499a1.89,1.89,0,0,1,1.15.14,3.24,3.24,0,0,1,.6.51,3.52,3.52,0,0,0,1,.66,1.51,1.51,0,0,0,.83.14.69.69,0,0,0,.56-.58c0-.27-.18-.52-.15-.77.07-.46.74-.59.86-1a3.94,3.94,0,0,0,.14-.49,2.09,2.09,0,0,1,.66-1.17,9.79,9.79,0,0,1,1-.88.55.55,0,0,0,.16-.18.94.94,0,0,0,0-.29c0-.17.1-.35,0-.5s-.18-.2-.27-.3a.84.84,0,0,1,0-1c.2-.3.49-.53.69-.82a1.82,1.82,0,0,0,.28-.82,1.35,1.35,0,0,1,.08-.6c.23-.4.9-.35,1.13-.75a1.3,1.3,0,0,0,.12-.55.54.54,0,0,1,.28-.47,1.47,1.47,0,0,1,.29-.05.52.52,0,0,0,.31-.52,1.44,1.44,0,0,0-.18-.6c-.29-.63.21-1.29.56-1.89a.75.75,0,0,1,.2-.26c.17-.11.41-.09.56-.23a.47.47,0,0,0,0-.61,3.49,3.49,0,0,0-.53-.42.61.61,0,0,1-.27-.59c.07-.26.38-.37.63-.48s.26-.16.24-.31a.24.24,0,0,0-.11-.16.69.69,0,0,0-.61,0,1.85,1.85,0,0,1-.62.19c-.22,0-.46-.15-.45-.36s.39-.41.38-.68-.4-.36-.69-.36a6.44,6.44,0,0,1-1.51-.19,5.68,5.68,0,0,0-1.52-.29.42.42,0,0,0-.19.06c-.16.14,0,.39.25.44s.44.05.55.22-.06.49-.3.57a2.62,2.62,0,0,1-.74,0c-.24,0-.54.08-.61.31a.5.5,0,0,0,.32.6,1.86,1.86,0,0,0,.74.08,5.65,5.65,0,0,1,2.15.43,1,1,0,0,1-.88.14l-2-.28a2.35,2.35,0,0,1-1.11-.36c-.22-.17-.38-.42-.62-.58-.58-.38-1.35,0-2-.08a1.89,1.89,0,0,1-1.46-.87A3.61,3.61,0,0,1,8.06,481a1.88,1.88,0,0,1-.06-.88c.13-.5.61-.8,1-1.19a2.27,2.27,0,0,0,.48-2l-1,1.65a3.22,3.22,0,0,1-.51.7c-.18.18-.4.32-.58.49a2.72,2.72,0,0,1-.61.52c-.25.11-.62,0-.64-.26s.23-.46.22-.7a1,1,0,0,0-.7.58,4.77,4.77,0,0,1-.2.57.41.41,0,0,1-.52.19c-.06-.05-.19.11-.2.2s0,.19,0,.26a.28.28,0,0,1-.39,0c-.12-.08-.2-.2-.33-.27a.61.61,0,0,0-.61.09c-.18.12-.33.3-.49.43s-.41.3-.58.48-.32.68-.55,1c.19,0,.31-.24.49-.35a1.18,1.18,0,0,1,.4-.13l1-.21a.33.33,0,0,1,.24,0c.18.07.14.34,0,.49a2.65,2.65,0,0,0-.41.41.25.25,0,0,0,0,.25.24.24,0,0,0,.09.08c.23.13.52,0,.79,0a.19.19,0,0,1,.12,0c.06,0,.06.13,0,.2a1.57,1.57,0,0,1-.4.85,1.24,1.24,0,0,1,.47-.06.47.47,0,0,1,.38.27.59.59,0,0,1-.15.53,8.15,8.15,0,0,1-1.33,1.06,1.16,1.16,0,0,1-.32.2.92.92,0,0,1-.66-.11c-.2-.09-.44-.21-.49-.43a1.43,1.43,0,0,1,0-.22.63.63,0,0,0-.36-.39,2.4,2.4,0,0,0-.52-.16A.54.54,0,0,1,.69,485c-.09-.17,0-.38,0-.57s-.42-.38-.56-.63a.78.78,0,0,1-.09-.37,1.9,1.9,0,0,1,.16-.85c.15-.4.43-.78.35-1.19a1,1,0,0,1,0-.17c0-.1.16-.12.24-.2s-.05-.5,0-.76a.46.46,0,0,1,.37-.3,1.3,1.3,0,0,1,.48,0,1.6,1.6,0,0,1,.58.15.45.45,0,0,0,.23.11.46.46,0,0,0,.34-.18.4.4,0,0,0,.16-.35c0-.1-.1-.17-.18-.23a3.17,3.17,0,0,0-.65-.35c.1-.27.45-.32.73-.28a1.14,1.14,0,0,0,.82-.1c.13-.1.17-.23.28-.35a.52.52,0,0,0,.18-.43c0-.07,0-.13-.06-.21a.5.5,0,0,1,.28-.43,1.29,1.29,0,0,0,.42-.35,1.89,1.89,0,0,0,.1-.36.36.36,0,0,1,.22-.28c.11,0,.21,0,.32,0a.56.56,0,0,0,.63-.74c0-.09-.08-.17-.06-.25s.25-.17.41-.19a.87.87,0,0,0,.72-.93.54.54,0,0,1,0-.22.38.38,0,0,1,.14-.19,2,2,0,0,1,.42-.35.58.58,0,0,1,.53,0,1.24,1.24,0,0,0,.51.13.43.43,0,0,0,.42-.24c.05-.16,0-.36,0-.53a.56.56,0,0,1,.37-.38,1,1,0,0,1,1.08.17c.13.13.25.29.43.29a.84.84,0,0,0,.2-.05c.17-.08.35-.21.36-.4a.46.46,0,0,0-.31-.38,1.19,1.19,0,0,1-.42-.3.71.71,0,0,1-.05-.48,1.78,1.78,0,0,1,.27-.76.92.92,0,0,1,.65-.43c.22,0,.45.05.67,0s.47-.17.44-.39a.37.37,0,0,0-.09-.2,1.27,1.27,0,0,0-.83-.56,1,1,0,0,0-.91.36c-.14.2-.23.48-.46.5s-.21,0-.31,0-.27.17-.31.32a4.21,4.21,0,0,1-.12.48.91.91,0,0,1-.67.44,4.46,4.46,0,0,1-.82,0,1.74,1.74,0,0,1-.79-.19.52.52,0,0,1-.22-.69c.22-.31.79-.17,1-.48a2,2,0,0,1-.64-.69c-.07-.13-.13-.26-.2-.37s-.31-.39-.43-.6a1,1,0,0,1,0-1.07.71.71,0,0,1,1-.12c.15.14.22.34.37.46a.6.6,0,0,0,.83-.25c.09-.15.13-.35.29-.44s.42,0,.64,0a.83.83,0,0,0,.55-.47,1.18,1.18,0,0,1,.47-.56.55.55,0,0,1,.47,0c.2.11.32.36.53.42.41.14.8-.41,1.21-.31a1.48,1.48,0,0,1,.38.23.39.39,0,0,0,.41.06.3.3,0,0,0,.13-.18.46.46,0,0,0-.31-.56,2,2,0,0,0-.34,0,.27.27,0,0,1-.23-.21l0-.32c0-.2-.2-.36-.41-.39s-.43,0-.63-.06a1.06,1.06,0,0,1-.46-1.47A6.09,6.09,0,0,1,13,461.41a.83.83,0,0,0,.2-.34,1.55,1.55,0,0,0,0-.52,1.44,1.44,0,0,1,.71-1.38c.26-.13.59-.25.65-.54s-.34-.59-.32-.92.25-.45.25-.7-.24-.43-.43-.6-.37-.45-.22-.66a.6.6,0,0,1,.32-.21,1.44,1.44,0,0,0,.93-1.07,2.65,2.65,0,0,0-.13-1,8.85,8.85,0,0,1-.23-2.35,6.57,6.57,0,0,0,0-.77,5.89,5.89,0,0,0-.26-1.12,20.55,20.55,0,0,0-.51-2.09,2.37,2.37,0,0,0-1.43-1.5c-.72-.21-1.55.09-2.19-.29a.79.79,0,0,1,.92-.86c.21.05.4.19.6.16s.53-.53.89-.52c.16,0,.3.12.47.14a.8.8,0,0,0,.31,0,1.72,1.72,0,0,0,1-.69.84.84,0,0,0-.18-1.13c-.41-.25-1,0-1.37-.32s-.14-1,.24-1.27.89-.46,1.25-.79a1.52,1.52,0,0,0,.34-1.64c-.1-.25-.28-.47-.39-.73a3,3,0,0,1-.15-1.36l.06-1.53a.63.63,0,0,1,.09-.38.65.65,0,0,1,.33-.22c.32-.1.66-.1,1-.19a1.05,1.05,0,0,0,.75-.6c.07-.22,0-.47.15-.66a.6.6,0,0,1,.85,0,2.09,2.09,0,0,1,.5.82,5.7,5.7,0,0,0,1,1.47.69.69,0,0,0,.18.16c.19.07.38-.1.48-.27a1.54,1.54,0,0,1,.32-.49.56.56,0,0,1,.66.05.93.93,0,0,1,.31.63.92.92,0,0,0,.09.37c.19.31.73.16,1,.42s.11.63.08.95a2.76,2.76,0,0,0,.73,1.74,1.65,1.65,0,0,0,.4.43,4.84,4.84,0,0,0,1.09.28,1.22,1.22,0,0,1,.68,1.64c-.09.18-.21.34-.28.52a5.3,5.3,0,0,0-.06,1.06c-.06.59-.52,1.12-.37,1.69a4.32,4.32,0,0,0,.3.61,2.94,2.94,0,0,1,.12,1.56,2.15,2.15,0,0,1-.11.55,2.38,2.38,0,0,1-1,1,1.61,1.61,0,0,0-.85,1.12,1.93,1.93,0,0,1,0,.59,1.16,1.16,0,0,1-.18.35,1,1,0,0,0,.73,1.38c.6.06.82,1,.65,1.54a7.47,7.47,0,0,0-.4,1c-.12.51.16,1.1-.07,1.58s-1,.75-1,1.33c0,.32.25.59.3.91a2.4,2.4,0,0,1-.19,1c-.09.32,0,.74.25.87-.24.77-.73,1.46-1,2.22a2.56,2.56,0,0,0,0,2.35c.05.08.12.18.22.19s.28-.19.33-.37c.14-.51.29-1,.42-1.52a2.86,2.86,0,0,0,.16-.91,3.37,3.37,0,0,1,0-.63c.11-.49.67-.77.79-1.26a3.79,3.79,0,0,0,0-.58,1,1,0,0,1,.67-.76,1,1,0,0,1,1,.25,1.58,1.58,0,0,1,.17,1.62c-.09.24-.11.64.15.67a.34.34,0,0,0,.22-.07c.79-.54.21-2,.92-2.6a2,2,0,0,0,.38-.33c.34-.5-.46-1.11-.32-1.7.1-.36.54-.61.48-1s-.44-.46-.54-.75.16-.7.48-.88a3.49,3.49,0,0,0,1-.52,2,2,0,0,0,.39-.81.7.7,0,0,0,0-.43c-.08-.28-.45-.35-.68-.54a.91.91,0,0,1-.24-1,1.48,1.48,0,0,1,.74-.76.79.79,0,0,0,.35-.24.59.59,0,0,0,0-.45,2.22,2.22,0,0,0-.74-1.15,1.11,1.11,0,0,1-.32-.29c-.29-.43.12-1.07-.14-1.52s-.63-.39-.94-.6a1.34,1.34,0,0,1-.47-1.36,2.93,2.93,0,0,1,.76-1.29.47.47,0,0,1,.24-.16c.21,0,.33.22.44.4a.88.88,0,0,0,.82.47.55.55,0,0,0,.43-.75c-.07-.12-.2-.21-.22-.35s.31-.38.55-.31.42.28.66.36.58-.07.55-.32a1.51,1.51,0,0,0-.09-.18,2.21,2.21,0,0,0-1-.76.82.82,0,0,1-.39-.43.3.3,0,0,1-.05-.27c0-.06.07-.11.12-.16a1.09,1.09,0,0,0,.29-.44.72.72,0,0,1,.08-.22c.08-.11.23-.15.34-.23a1.33,1.33,0,0,0,.47-.68.94.94,0,0,0,.11-.52c-.08-.43-.69-.59-.76-1a1.28,1.28,0,0,1,0-.39,1.07,1.07,0,0,0-.32-.76,5.81,5.81,0,0,1-.46-.38,1.34,1.34,0,0,1-.22-.74.66.66,0,0,1,0-.39c.14-.23.49-.22.7-.4a.6.6,0,0,0,.06-.73c-.09-.16-.23-.3-.23-.47a2.61,2.61,0,0,1,.06-.27c0-.42-.49-.68-.58-1.08a.77.77,0,0,1,.18-.6,1.94,1.94,0,0,1,.49-.41l.5-.35c.12-.08.27-.18.42-.12a.37.37,0,0,1,.2.35,1.49,1.49,0,0,0,.06.43.27.27,0,0,0,.33.18.7.7,0,0,0,.73-.66c0-.2-.08-.41-.09-.62a.75.75,0,0,1,.7-.72c.17,0,.36,0,.5,0s.23-.42.44-.52.44.09.66,0,.34-.45.23-.73c.85.07,1.7.1,2.54.09,1.21,0,2.41-.11,3.61-.21a5.67,5.67,0,0,1,2.36.15,2.82,2.82,0,0,1,1.62,1.52c.38.87.47,2.12,1.41,2.37a2.11,2.11,0,0,0,.9,0c.51-.1,1-.21,1.54-.3a.45.45,0,0,0-.1.09c-.2.26-.21.63-.4.9s-.23.25-.32.38a.38.38,0,0,0,0,.47.81.81,0,0,0-.07.22c.25-.14.66-.21.75,0s-.14.4-.28.57a.72.72,0,0,0-.14.93c.1.1.23.16.31.26.22.3-.11.7-.15,1.06s.29.89,0,1.21c-.07.08-.17.14-.24.22-.21.25-.08.63.06.93s.21.36.4.37c.39,0,.44-.72.83-.73s.42.35.69.44a.73.73,0,0,0,.36,0,16.38,16.38,0,0,1,2.62-.14.85.85,0,0,1,.5.12c.1.06.17.16.28.19a.63.63,0,0,0,.48-.11,2,2,0,0,1,1.12-.24,1.06,1.06,0,0,1,.85.69c.12.42-.09.91.16,1.28.09.13.24.23.35.36a.75.75,0,0,1,.12.76.77.77,0,0,1-.62.47c-.17,0-.36,0-.51.06a.73.73,0,0,0-.27.46,1,1,0,0,0,0,.89,3.19,3.19,0,0,1,.26.26.66.66,0,0,1,0,.61,2.79,2.79,0,0,1-.77,1,.76.76,0,0,1-.33.23.73.73,0,0,1-.44,0,2.81,2.81,0,0,1-1.39-.95.63.63,0,0,0-.29-.27.47.47,0,0,0-.33,0,14.68,14.68,0,0,0-1.38.55,1.85,1.85,0,0,1-1.44,0c-.22-.11-.42-.3-.67-.28s-.57.54-.91.73-1-.12-1.55-.21a.93.93,0,0,0-.8.18.55.55,0,0,0-.06.74c.18.18.5.22.54.46s-.14.36-.16.56.27.43.53.47a1.4,1.4,0,0,1,.73.23c.21.2.28.6.56.63s.44-.45.74-.57a.59.59,0,0,1,.58.16c.16.12.3.29.47.41a2.4,2.4,0,0,0,1.16.2,1.08,1.08,0,0,1,1,.52c.2.51.28,1.11.44,1.64a1.31,1.31,0,0,0,.23.51l.17.18a3.32,3.32,0,0,0,.26.36,3.07,3.07,0,0,0,.36.27,2.74,2.74,0,0,1,1,1,1.51,1.51,0,0,1-1.06,2.3,3.54,3.54,0,0,0-.85.42.69.69,0,0,0-.21.85c.2.34.8.4.83.79a.5.5,0,0,1-.07.27,1.38,1.38,0,0,1-1.25.53,4.5,4.5,0,0,0-1.42,0,1.43,1.43,0,0,0-.93,1.4c0,.07,0,.14.07.17s.15,0,.23,0,.38.22.36.43a1.21,1.21,0,0,1-.27.57c-.37.51-.71,1.2-.38,1.73.12.21.34.39.37.63s-.23.59-.19.9.69.51,1.09.74a1.09,1.09,0,0,1,.44,1.35,3.31,3.31,0,0,0-.31.66c0,.19,0,.39,0,.58-.07.51-.67.72-1.09,1a2.94,2.94,0,0,1-.84.56c-.23.07-.47,0-.7.09s-.45.29-.36.52.39.24.56.41.17.21.27.3c.34.25,1-.11,1.19.25.19.07.18.29.18.5a2.59,2.59,0,0,1-.15.61,5.49,5.49,0,0,0,.08,3.16,28.11,28.11,0,0,1,.78,3.1,1.78,1.78,0,0,1-.08,1,3.31,3.31,0,0,1-.79.84c-.38.36-.67.85-1.16,1a9.61,9.61,0,0,1-1,.16c-.32.08-.64.34-.61.65a.26.26,0,0,0,.1.19.64.64,0,0,0,.14.08.44.44,0,0,1,0,.57,4.66,4.66,0,0,0-.39.49.89.89,0,0,0,.08.89,1.78,1.78,0,0,0,.74.56.76.76,0,0,1,.29.18c.24.27,0,.67-.31.88s-.62.5-.53.83.84.5.85.93-.35.52-.37.82a1.26,1.26,0,0,0,.2.58c.09.19.09.46-.1.54s-.38-.12-.53-.26a1.31,1.31,0,0,0-1.14-.28,4.13,4.13,0,0,0,0,1.11c0,.37-.12.81-.48.89a1.35,1.35,0,0,0-.29.05.69.69,0,0,0-.19.19l-1,1.24a1.05,1.05,0,0,1-.23.24,1.27,1.27,0,0,1-.39.12,1.52,1.52,0,0,0-.88.4.77.77,0,0,0-.16.89,2.53,2.53,0,0,1,.18.27c.11.33-.25.61-.35.94s0,.67,0,1-.45.66-.73.94-.51.76-.26,1.08c.1.13.28.25.26.41s-.22.2-.37.2a1.54,1.54,0,0,1-.91-.29.48.48,0,0,0-.09.57,4.72,4.72,0,0,0,.35.52,1.23,1.23,0,0,1,0,1.19c-.1.2-.26.37-.37.57a.64.64,0,0,0-.05.64c.25.44,1.05.22,1.3.65s0,.64-.19.94-.23.74.06.9a1.25,1.25,0,0,0,.43.07,1.15,1.15,0,0,1,1,1.35c-.05.23-.18.43-.24.66a.66.66,0,0,0,.08.65c.11.11.27.17.35.31s-.09.53,0,.76.54.24.66.49a.4.4,0,0,1-.15.5,1.25,1.25,0,0,1-.54.19l-1.17.19a.37.37,0,0,0,0,.23,3.66,3.66,0,0,0-.19,1.39.72.72,0,0,1,0,.41c-.15.37-.8.23-1,.58,0,.05-.06.12-.12.16a.21.21,0,0,1-.2,0,2,2,0,0,1-.55-.36s-.09-.09-.15-.09a.25.25,0,0,0-.21.17,1.63,1.63,0,0,0,0,1.13c.11.38.28.72.4,1.1a5.8,5.8,0,0,1,.14,1.32c0,.69.05,1.38.05,2.07a4.07,4.07,0,0,0-1.62,1.17,17.59,17.59,0,0,1-1.4,1.46.69.69,0,0,1-.41.2c-.29,0-.47-.39-.75-.39a.49.49,0,0,0-.31.13c-.6.47-.74,1.31-1.1,2a6.37,6.37,0,0,0-.38.73.79.79,0,0,0,.09.78c.09.11.23.19.28.32a.69.69,0,0,1-.09.5,2.18,2.18,0,0,0-.17,1l-4.46,8.75a1.71,1.71,0,0,1-.2,1c-.12.18-.32.29-.46.46s-.18.45,0,.58.4,0,.59.06a.72.72,0,0,1,.5.82,4.59,4.59,0,0,1-.38,1,1.06,1.06,0,0,0,0,1c.16.19.42.29.53.51s.05.41.12.6c.16.48.85.63,1,1.11a.25.25,0,0,1,0,.17c-.05.18-.28.18-.45.21a.76.76,0,0,0-.33,1.24c.09.07.21.13.31.21a2.16,2.16,0,0,1,.69,1.3,3.12,3.12,0,0,0,1.11,2.08,2.44,2.44,0,0,1,.8.51,1.39,1.39,0,0,1,.08,1.1l-.36,1.69a.15.15,0,0,0,0,.13c0,.17.32.1.39,0s.06-.33.16-.48c.19-.3.65-.21,1-.08a.62.62,0,0,1,.45-.73c.19,0,.4,0,.59,0,.53-.1.71-.76.73-1.3a1.19,1.19,0,0,1,.17-.72.74.74,0,0,1,.8-.16,2.16,2.16,0,0,1,.73.5.78.78,0,0,0,.32.18.52.52,0,0,0,.27,0,1.69,1.69,0,0,0,1-1c0-.14.13-.33.28-.32s.2.17.3.26a.59.59,0,0,0,.66,0,1.47,1.47,0,0,1,.63-.3.72.72,0,0,1,.68.64,1.94,1.94,0,0,1-.16,1,2.34,2.34,0,0,0-.19,1c.05.32.55.3.68.61s-.18.71.08.9c.08.06.18.07.26.12a.39.39,0,0,1,.12.37,3.06,3.06,0,0,0-.1.41c-.07.33.09.68,0,1-.09.55-.71.83-1.05,1.28a1.83,1.83,0,0,0-.29,1.39,2.76,2.76,0,0,0,.66,1.28,3.13,3.13,0,0,1,.42.54,1.15,1.15,0,0,1-.1,1.21,3.79,3.79,0,0,0-.38.42.47.47,0,0,0,0,.53c.12.15.38.18.46.36s-.1.36-.19.55a.68.68,0,0,0,0,.62.53.53,0,0,1,.12.22.37.37,0,0,1-.12.26l-.47.65a1.72,1.72,0,0,0-.31.54.64.64,0,0,0,.07.6c.29.36.92.19,1.22.52a3.94,3.94,0,0,0,.05,1,.84.84,0,0,0,.24.51,1.07,1.07,0,0,0,.77.07c.27,0,.6,0,.73.22s.07.26.14.37a.84.84,0,0,0,.18.15,8.94,8.94,0,0,1,1.13,1.09,1.57,1.57,0,0,1,.28.41.65.65,0,0,1-.1.63c-.12.16-.3.26-.42.41s-.13.43,0,.52.29,0,.43,0,.33.34.37.58l20.12-.6,4.47,2.14,3.43.14a2.13,2.13,0,0,1,1.18.24,4.93,4.93,0,0,1,.89.82A3.2,3.2,0,0,0,78,572.46c.52,0,1.1-.12,1.54.16.19.12.34.32.53.43.41.23.93,0,1.41.08a.57.57,0,0,1,.29.07C82.09,573.4,82,573.88,81.94,574.24Z"/><path class="cls-1" d="M47.33,427.73a1.31,1.31,0,0,0,.35,1.21c.21.19.55.37.49.66,0,.07-.06.13-.05.19s.28.19.41.29.12.51-.07.69-.35.25-.5.38a0,0,0,0,0,0,0c-.52.09-1,.2-1.54.3a2.11,2.11,0,0,1-.9,0c-.94-.25-1-1.5-1.41-2.37a2.82,2.82,0,0,0-1.62-1.52,5.67,5.67,0,0,0-2.36-.15c-1.2.1-2.4.2-3.61.21-.84,0-1.69,0-2.54-.09a.25.25,0,0,0,0-.12c-.14-.3-.39-.58-.36-.9s.15-.39.11-.58-.23-.34-.42-.46a6.61,6.61,0,0,1-1.93-1.87.79.79,0,0,1-.16-.44c0-.34.44-.52.55-.83s-.33-.87-.37-1.34.52-1,1-1.19,1.09-.56,1.13-1.12-.6-1.14-.39-1.69c.09-.26.35-.44.38-.71a1.62,1.62,0,0,1,0-.22.4.4,0,0,1,.44-.23.75.75,0,0,1,.43.33c.07.11.14.23.27.25a.32.32,0,0,0,.35-.23,1,1,0,0,0-.3-1,2.48,2.48,0,0,1-.63-.86.36.36,0,0,1,0-.25.28.28,0,0,1,.35-.12.81.81,0,0,1,.34.24c.11.11.32,0,.37-.16a.53.53,0,0,0-.07-.44,2.55,2.55,0,0,0-.94-1,1,1,0,0,1-.34-.23,1.19,1.19,0,0,1-.21-.38l-.24-.68a.77.77,0,0,1-.07-.36.66.66,0,0,1,.12-.27l.45-.78c-.17-.34-.28-.72-.46-1.05a1.29,1.29,0,0,1-.08-.26c0-.22.16-.39.21-.6a2.09,2.09,0,0,0,0-.56.5.5,0,0,1,.25-.46.58.58,0,0,1,.3,0,5.1,5.1,0,0,1,2.44.67A1.2,1.2,0,0,0,37,408a.3.3,0,0,0,.26-.54,1.26,1.26,0,0,0-.38-.15,2.59,2.59,0,0,1-1.69-1.67,2.41,2.41,0,0,0-.2-.53c-.14-.23-.38-.37-.53-.59a4.71,4.71,0,0,0-.35-.67c-.12-.11-.29-.19-.38-.34a.51.51,0,0,1,.13-.58,1.77,1.77,0,0,1,.54-.34,5.34,5.34,0,0,0,1.49-1.06c.1-.1.22-.2.35-.17a.51.51,0,0,1,.13.09c.35.35.15,1,.33,1.42a3,3,0,0,0,.21.4,4.44,4.44,0,0,0,.56,1c.15.16.35.26.51.41a.88.88,0,0,1,.18.25l-.24-2.08a7.13,7.13,0,0,0-.18-1.14,2.1,2.1,0,0,1-.14-.73,2.84,2.84,0,0,1,.16-.57,5.45,5.45,0,0,0,.23-1.34,1.58,1.58,0,0,0-.08-.78.52.52,0,0,0-.64-.29c-.22.09-.3.37-.49.5-.38.24-.85-.18-1.3-.15-.25,0-.47.18-.72.17a1.31,1.31,0,0,1-.33-.12l-.62-.28a1.2,1.2,0,0,1-.4-.26c-.07-.08-.11-.19-.18-.28a.75.75,0,0,0-.68-.33c-.07-.51.74-.57.88-1.07,0-.11,0-.23.05-.34a1.09,1.09,0,0,1,.35-.5L35,394.29a1.59,1.59,0,0,1,.7-.46,2.33,2.33,0,0,1,.53,0,2.62,2.62,0,0,0,1.76-.76,3.06,3.06,0,0,1,.46-.42c.14-.09.31-.14.45-.24a1.28,1.28,0,0,0,.35-1.22,2.21,2.21,0,0,1,.08-1.3.67.67,0,0,0,.12-.29,1.42,1.42,0,0,0,0-.22,2.08,2.08,0,0,1,.15-.91c.07-.31-.1-.73-.41-.69a.44.44,0,0,0-.34.42,2.8,2.8,0,0,0,.09.58,3.75,3.75,0,0,1-.19,1.75,5.68,5.68,0,0,1-.52,1.31,2.42,2.42,0,0,1-1.29,1.09,1.58,1.58,0,0,1-1.6-.31,2.68,2.68,0,0,1-.42-.58,9.58,9.58,0,0,1-.66-1.22,2.17,2.17,0,0,0-.36-.65,1.57,1.57,0,0,0-.43-.27,4.63,4.63,0,0,0-1.63-.62,1.66,1.66,0,0,0-1.57.62c-.49.76,0,1.86-.45,2.67-.2.38-.6.73-.52,1.15,0,.15.14.29.12.44a.55.55,0,0,1-.33.35,2.17,2.17,0,0,1-1.64.13c-.42-.16-.86-.45-1.28-.3s-.59.59-1,.72a1.26,1.26,0,0,1-.64,0l-2.87-.55a2.56,2.56,0,0,1,.62-1.24c.17-.2.39-.39.39-.65a.77.77,0,0,0-.47-.61,2.07,2.07,0,0,1-.69-.41c-.15.3-.64.14-.81-.15s-.19-.66-.41-.91-.38-.29-.48-.49a1.24,1.24,0,0,1,0-.76,3.37,3.37,0,0,0-.19-2.08c-.19-.45-.16-1-.37-1.46a7.9,7.9,0,0,1-.75-1.36,7.5,7.5,0,0,0-.14-1c-.1-.26-.31-.49-.32-.76s.4-.68.75-.89.72-.57.59-1c-.07-.21-.28-.34-.36-.55-.17-.37.11-.78.3-1.14a2.64,2.64,0,0,0,.2-1.79.58.58,0,0,1,0-.32c0-.15.18-.22.31-.29a2.19,2.19,0,0,0,1-1.09,1.2,1.2,0,0,0-.37-1.36.77.77,0,0,1-.33-.26.7.7,0,0,1-.05-.53,5.32,5.32,0,0,0-.37-2.62.55.55,0,0,1,.36-.39,5.35,5.35,0,0,1,1.61.58c1.25.68,2.46,1.64,3.9,1.63,1.67,0,3.35-1.35,4.88-.65s1.64,2.57,2.83,3.53a4.53,4.53,0,0,0,3.18.68,18.26,18.26,0,0,0,7.36-2.11c0,.31-.12.63,0,.92.06.11.16.2.15.33a.33.33,0,0,1-.13.21c-.17.17-.36.32-.51.5a.82.82,0,0,0-.17.67c.1.36.06.71.14,1.07a1.74,1.74,0,0,0,.42,1c.15.17.38.26.52.44a.74.74,0,0,1-.29,1.12.79.79,0,0,0-.26.13c-.18.18,0,.49.22.59a3.09,3.09,0,0,1,.68.26.78.78,0,0,1,.13,1,1,1,0,0,0-.19.48c0,.22.19.41.14.63s-.5.29-.68.52a.58.58,0,0,0,0,.61,4.93,4.93,0,0,0,.42.49c.1.12.19.32.08.44s-.18.08-.27.13a.35.35,0,0,0-.17.45c.06.14.2.23.23.37s-.23.43-.31.67a.73.73,0,0,0,.25.74,2.6,2.6,0,0,1,.54.61,1.51,1.51,0,0,1,.08.76c0,.48-.06,1-.1,1.44A1.16,1.16,0,0,0,44.5,392a5.69,5.69,0,0,0,.71.77,3.49,3.49,0,0,1,.6,1.64.57.57,0,0,1,0,.29,1,1,0,0,1-.12.29c-.32.67.29,1.44.16,2.16a1.05,1.05,0,0,0,0,.42c0,.22.24.37.36.54a1.7,1.7,0,0,1,.3.82,1.33,1.33,0,0,1-.11,1c-.33.47-1.11.41-1.5.85a1.14,1.14,0,0,1-.15.16.35.35,0,0,1-.4-.12,2.13,2.13,0,0,1-.23-.42,1.14,1.14,0,0,0-.94-.54,1.11,1.11,0,0,0-.93.58c0,.06-.06.13-.13.15a.15.15,0,0,1-.13,0,2.07,2.07,0,0,1-.59-.16c-.25-.1-.41.32-.32.57a4.22,4.22,0,0,1,.38.73c.08.32-.09.66,0,1s.41.68.37,1.06c0,.19-.15.39-.08.56s.55.19.8.35a.87.87,0,0,1,.28.46,2.28,2.28,0,0,1,.17,1.28c-.15.49-.65.85-.75,1.36s.08.77,0,1.14-.37.58-.44.91.17.85.16,1.29a5.62,5.62,0,0,1-.15.8,2.73,2.73,0,0,0,.67,1.72A6.59,6.59,0,0,0,44,415.47a1.2,1.2,0,0,1,.47.42c.07.14.07.29.13.43.17.33.63.35,1,.33.32.27.58.6.9.88.16.14.35.32.33.55s-.12.28-.12.44.32.47.24.72-.7.14-.93.42-.11.41-.29.48-.35-.07-.54-.05-.32.34-.29.57a1.5,1.5,0,0,1,.07.69c-.08.25-.36.46-.29.71s.8.21,1,.54,0,.5-.13.74-.19.57,0,.71.5-.06.61-.29.26-.41.42-.31,0,.35.13.52.74,0,.91.35,0,.44,0,.64c.16.37.86.08,1,.45a.5.5,0,0,1-.07.45,4.29,4.29,0,0,1-.67.75A2.37,2.37,0,0,0,47.33,427.73Z"/><path class="cls-1" d="M17.87,409.39c-.23-.88-1.06-1.59-1-2.51,0-.58.43-1.13.34-1.71s-.44-.85-.39-1.3.74-.86,1.11-1.31c.67-.8.31-2,.29-3a4.25,4.25,0,0,1,.33-1.72.72.72,0,0,0,.08-.32c0-.27-.36-.39-.51-.62a.72.72,0,0,1,.46-1,2.07,2.07,0,0,1,1.22.12,1.5,1.5,0,0,1-.62.72,2.22,2.22,0,0,0,2.7-.34c.34-.36.69-.89,1.16-.76.27.08.49.37.77.31s.29-.23.47-.28a.46.46,0,0,1,.5.37,1.21,1.21,0,0,1-.13.67,5.58,5.58,0,0,1-.9,1.4,7.17,7.17,0,0,0,1.34.87c.44.3.79.91.49,1.35-.09.14-.23.25-.31.39-.21.45.3.88.65,1.23a2.45,2.45,0,0,1,.72,1.47.71.71,0,0,1-.11.54.76.76,0,0,1-.44.21l-1.45.35a1.8,1.8,0,0,0-1.21.67.92.92,0,0,0,.3,1.21c-.27.07-.59.23-.57.51,0,.45.89.39,1,.84a4.49,4.49,0,0,0-1.53.53c-.43.33-.63,1.06-.21,1.4s1.06.13,1.38.51.19.63.4.88a1.5,1.5,0,0,0,.54.3,2.51,2.51,0,0,1,1,.84,1,1,0,0,1,.19.52.73.73,0,0,1-.9.55,2.14,2.14,0,0,1-1-.66,1.69,1.69,0,0,1-1.26.39c-.15.23.2.49.48.47s.59-.11.8.07.13.57.2.87.51.67.79,1,.35.95-.06,1.08c-.14.5.9.55,1,1.06a.47.47,0,0,1-.41.5.91.91,0,0,1-.66-.22c-.17-.13-.35-.3-.56-.25s-.38.58-.69.64a1,1,0,0,1-.18-.51c-.05-.17-.2-.36-.37-.31a.33.33,0,0,0-.17.14,1.27,1.27,0,0,0,.17,1.34,4.49,4.49,0,0,1,.73,1.22c.11.47-.17,1.08-.64,1.06a1.88,1.88,0,0,1,.6.59.63.63,0,0,1-.12.77c-.29.22-.72,0-1.05.19-.14.07-.25.21-.41.24a.64.64,0,0,1-.46-.12,6.15,6.15,0,0,1-1.71-1.38c-.38-.11-.6.56-1,.56-.19,0-.36-.15-.55-.13s-.25.11-.38.13-.43-.21-.63-.37c-.53-.42-1.31-.18-2-.3a.78.78,0,0,1-.52-.27c-.28-.38.06-.89.39-1.23s.7-.82.45-1.23c-.12-.2-.38-.33-.4-.57s.2-.36.37-.49A4.18,4.18,0,0,0,17,416.28a1.12,1.12,0,0,0,.18-.49,2.07,2.07,0,0,0-.15-.73.61.61,0,0,1,.21-.67,3.37,3.37,0,0,1,.34-.09.71.71,0,0,0,.4-.64,3,3,0,0,0-.13-.78,5.22,5.22,0,0,1,0-1.93A3.44,3.44,0,0,0,17.87,409.39Z"/><path class="cls-1" d="M12,426.64a4.59,4.59,0,0,1,1-.16.23.23,0,0,0,.18-.08.2.2,0,0,0,0-.11c0-.34-.31-.6-.59-.8a9,9,0,0,0-1.05-.68c-.13-.07-.31-.13-.41,0s-.06.25-.14.33-.44-.07-.64,0a.32.32,0,0,0-.12.34,3.88,3.88,0,0,0,.15.36,4.16,4.16,0,0,1,.09.79c.05.28.27.61.59.49S11.66,426.74,12,426.64Z"/><path class="cls-1" d="M17.45,429.55a.64.64,0,0,1,.6-.15,3.79,3.79,0,0,1,.61.23.91.91,0,0,0,.63.07.45.45,0,0,1,.2,0c.1,0,.16.11.25.15s.46-.08.58-.29a1.45,1.45,0,0,1,.37-.61.61.61,0,0,1,.64,0,1.59,1.59,0,0,1,.49.44,5.56,5.56,0,0,1,.41.58c.14.23.26.55.08.75s-.12.1-.17.15c-.3.31,0,.91-.25,1.24a.55.55,0,0,1-.48.15,4.94,4.94,0,0,1-.53-.1c-.41-.07-.9,0-1.2-.28s-.26-.58-.49-.81a.37.37,0,0,0-.16-.09c-.14,0-.29.06-.42.13a1.1,1.1,0,0,1-.85.09.82.82,0,0,1-.58-.67A1.66,1.66,0,0,1,17.45,429.55Z"/><path class="cls-1" d="M24.1,432.37a1.07,1.07,0,0,0-.32-.41l-.25-.23a.59.59,0,0,0-.29-.18.42.42,0,0,0-.47.32.73.73,0,0,0,.16.6,1.59,1.59,0,0,1,.32.46c.06.18,0,.39.1.55s.1.12.15.18c.15.22.05.51,0,.78a.29.29,0,0,0,0,.16.26.26,0,0,0,.23.19.44.44,0,0,0,.31-.06.9.9,0,0,0,.33-1.33c-.09-.13-.38-.32-.4-.49S24.2,432.62,24.1,432.37Z"/><path class="cls-3" d="M15.18,487.62c-.09.09-.19.22-.15.34a.75.75,0,0,0,.14.17.79.79,0,0,1,.12.64,1.52,1.52,0,0,0,0,.67s0,0,0,.06.08,0,.12,0a2.46,2.46,0,0,0,.45-.64c.36-.54,1.07-.81,1.34-1.4a.45.45,0,0,0,0-.39c-.06-.15-.23-.2-.38-.24C16.16,486.66,15.66,487.16,15.18,487.62Z"/><path class="cls-1" d="M80.08,578.53v35.84c.24.24-.22.6-.55.66a1.48,1.48,0,0,1-.94-.33l-1.84-1.22A4.9,4.9,0,0,0,78,615.27c-1.38.41-2.92.82-4.22.18a11.72,11.72,0,0,0-1.61-.92c-.45-.15-.94-.14-1.39-.28s-.89-.54-.83-1a1.44,1.44,0,0,0,.06-.4c0-.36-.57-.42-.87-.22a4.84,4.84,0,0,0-.69.8,2.57,2.57,0,0,1-1.24.6,8.89,8.89,0,0,1-7.75-1.79,3.44,3.44,0,0,0-.9-.62.85.85,0,0,0-1,.24c-.24.34-.11.86-.39,1.16a2.55,2.55,0,0,1-.42-1.54c-.59-.06-1.19.59-1.7.29s-.1-1.68-.78-2c-.45-.2-.9.33-1.08.8s-.4,1-.9,1.1-1-.79-1.62-.87-.89.36-1.36.4a1.22,1.22,0,0,1-1.15-.78A3.32,3.32,0,0,1,48,609c.7.61,1.61,1.27,2.47.91a2.42,2.42,0,0,0,.72-.55l1.49-1.45a1.79,1.79,0,0,1,.6-.43c.78-.26,1.44.65,2.24.87a2.82,2.82,0,0,0,2.14-.67,1.71,1.71,0,0,0,.5-.43c.17-.24.22-.55.4-.78.47-.62,1.44-.35,2.15,0a.63.63,0,0,0-.11-.8,1.91,1.91,0,0,0-.77-.41l-1.19-.4a1.41,1.41,0,0,1-.92-1.71,5,5,0,0,0,.18-2.51,5.64,5.64,0,0,1-.26-1.22.94.94,0,0,1,.62-1c.4-.09.77.2,1.14.38s1,.12,1-.28a.61.61,0,0,0-.08-.37c-.3-.59-1.11-1.09-.88-1.72.14-.36.56-.52.83-.8.62-.66.41-2,1.27-2.3.61.76.4,1.87.33,2.84a8.47,8.47,0,0,0,.71,4.16,2.73,2.73,0,0,1,.23.66c.37.11.59.84.65,1.21a5.15,5.15,0,0,0,.2,1.12c.16.35.46.62.63,1s.19.62.44.79c.49.33,1.24-.28,1.73.07a1.33,1.33,0,0,1,.37.78,2.91,2.91,0,0,0,1,1.55.31.31,0,0,0,.18.09.29.29,0,0,0,.28-.17c.24-.48-.46-1-.27-1.54a.67.67,0,0,1,.9-.27,2,2,0,0,1,.71.75c.18.27.36.54.53.81a1.27,1.27,0,0,0,.45.47.46.46,0,0,0,.59-.1c.18-.3-.14-.78.13-1a.56.56,0,0,1,.52,0c.75.24,1.63.65,1.7,1.44,0,.61-.44,1.11-.85,1.57s-.77,1.12-.47,1.65a1.73,1.73,0,0,0,1-1.19,1.3,1.3,0,0,1,.25-.72c.19-.18.62,0,.53.2.56.08.58-1,1.12-1.16.38-.14.8.26,1.19.15a.68.68,0,0,0,.3-1,1.92,1.92,0,0,0-.93-.72q-3.93-1.9-8-3.49c-.37-.14-.79-.34-.87-.72a1.43,1.43,0,0,0-.08-.43c-.12-.19-.38-.21-.59-.3-.52-.21-.69-.85-.78-1.4-.19-1-.37-2.07-.56-3.11a1.4,1.4,0,0,1,0-.61c.18-.63,1-.65,1.63-.94.39-.2.7-.57,1.12-.66.58-.13,1.23,0,1.73-.28.31-.19.54-.49.83-.7.72-.53,1.81-.51,2.38-1.22a2.77,2.77,0,0,0,.27-2.11,1.13,1.13,0,0,0-.36-.79,1.15,1.15,0,0,0-.64-.11c-2.41.11-5,.27-6.92,1.68-.39.29-1,.63-1.31.31s-.22-.6-.39-.87c-.34-.54-1.24-.39-1.67-.87s-.23-1-.12-1.55a10,10,0,0,0,.19-2.84,2,2,0,0,1,.16-1.29c.26-.37,1-.39,1.06,0,0,.22,0,.52.17.6a.31.31,0,0,0,.25,0,3.62,3.62,0,0,0,1.48-.7,1.28,1.28,0,0,0,.34-1.49c-.28-.47-1.12-.52-1.33,0a3.07,3.07,0,0,0-.12-1.13,1.1,1.1,0,0,0-.8-.74c-.37-.05-.9,0-1-.31s.35-.46.65-.5l1.67-.21a1,1,0,0,1,.34,0c.27.09.35.43.42.71a2,2,0,0,0,.84,1.21,1.33,1.33,0,0,0,1.42,0c.24-.16.41-.41.64-.57.38-.25.91-.25,1.21-.58s.23-1,.49-1.52.73-.6.84-1a2.77,2.77,0,0,0,0-.5c0-1,.89-1.76,1.69-2.38a2.91,2.91,0,0,1,.61,1.57,5.66,5.66,0,0,0,.56,1.45,1.22,1.22,0,0,0,.38.46,1.32,1.32,0,0,0,.88.09c.72-.07,1.46-.11,2.17-.24a2.65,2.65,0,0,0,1.25-.5,1.16,1.16,0,0,0,.41-1.21c.08-.15.34-.12.45,0a1.43,1.43,0,0,1,.18.5A1.55,1.55,0,0,0,80.08,578.53Z"/><path class="cls-1" d="M85.52,615.27a1.59,1.59,0,0,1,.27-.18c.26-.08.48.2.72.34a1.38,1.38,0,0,0,.53.17l1.11.22a6.32,6.32,0,0,0,1.73.17c.37,0,.74-.12,1.11-.15a7.15,7.15,0,0,1,.8,0c.4,0,.87.07,1.08.42s.09.6.24.85c.25.44,1,.48,1.15.94a1,1,0,0,1,.06.39,2.78,2.78,0,0,1-.45,1.45,4.8,4.8,0,0,0-.63,1,3.26,3.26,0,0,1-.25.89c-.26.39-.82.42-1.29.41a2.25,2.25,0,0,1-.73-.09.75.75,0,0,1-.51-.5c-.08-.31.1-.62.08-.94a.77.77,0,0,0-1.5-.18c-.08.24-.07.55-.29.68s-.38,0-.58,0a6.45,6.45,0,0,0-.76,0c-.59,0-1.11-.41-1.69-.43a4.48,4.48,0,0,0-.82.1,1.21,1.21,0,0,1-.8-.1.56.56,0,0,1-.22-.71c.05-.08.13-.14.19-.22a.84.84,0,0,0,0-.8,2.52,2.52,0,0,1-.28-.78,6.33,6.33,0,0,1,.12-.76c.11-.9-.69-.44-1.16-.67s-.14-.64.09-.91a2.13,2.13,0,0,1,1.32-.87C84.6,615.06,85.08,615.53,85.52,615.27Z"/><path class="cls-1" d="M10.22,538.27a.3.3,0,0,0,0-.19.23.23,0,0,0-.11-.08.83.83,0,0,0-1.11.61,2.3,2.3,0,0,0,.08.68,4,4,0,0,1-.09,2,4.07,4.07,0,0,0-.24.91,6.66,6.66,0,0,0,0,.77c0,.37-.09.73-.12,1.09a1.23,1.23,0,0,0,.3,1s.07.07.11.07a.2.2,0,0,0,.16-.07l.78-.56a.59.59,0,0,1,.22-.12c.22,0,.39.24.34.46a1.05,1.05,0,0,1-.38.53l-1,.9a1,1,0,0,0-.3.35.38.38,0,0,0,.07.43c.11.09.27.08.38.16a.47.47,0,0,1,0,.6c-.12.18-.3.32-.43.5s-.15.46,0,.59.2.08.29.15c.25.16.19.54.09.82s-.19.65.05.83a.54.54,0,0,0,.32.11,4.34,4.34,0,0,0,1,0,.54.54,0,0,0,.33-.13.51.51,0,0,0,.08-.32,13.23,13.23,0,0,1,.29-2.44,1.23,1.23,0,0,1,.16-.43,1.19,1.19,0,0,1,.36-.31,4.84,4.84,0,0,0,1-.65.9.9,0,0,0,.19-1,1.27,1.27,0,0,1-.12-.23.37.37,0,0,1,0-.23,4.54,4.54,0,0,1,.87-1.09,1.51,1.51,0,0,0,.48-1.26,1.06,1.06,0,0,1-.06-.39.72.72,0,0,1,.17-.29c.31-.38.63-.74.94-1.12a1,1,0,0,0,.24-.38.65.65,0,0,0-.43-.71,1.14,1.14,0,0,0-.88.12.48.48,0,0,1-.21.07c-.23,0-.26-.34-.37-.55-.3-.62-1.5-.23-1.79-.86-.05-.09-.07-.21-.15-.27a.45.45,0,0,0-.26,0,1.07,1.07,0,0,0-.73.2c-.12.11-.17.27-.29.38C10,539.31,10.17,538.46,10.22,538.27Z"/><path class="cls-1" d="M12.88,549.52c.08.28.42.4.61.63s.16,1,.5,1.36c.15.17.39.25.52.43.27.35,0,.85,0,1.29a11.12,11.12,0,0,0,.25,1.38,3.25,3.25,0,0,1-.11,1.07l-.75,3.64a.14.14,0,0,1-.2,0,1,1,0,0,1-.09-.22.4.4,0,0,0-.55-.11.8.8,0,0,0-.3.54c-.08.54.11,1.1,0,1.64a3.56,3.56,0,0,0-.17,1.06,1.08,1.08,0,0,1,0,.5c-.06.19-.28.27-.44.41-.44.36-.35,1-.2,1.6a.51.51,0,0,0,.15.29.46.46,0,0,0,.47,0,1.41,1.41,0,0,0,.82-.85c.13-.38.1-.79.2-1.17s.43-.77.82-.71.69.6,1.11.57.57-.57.85-.88a2.66,2.66,0,0,1,1.1-.55A3.88,3.88,0,0,0,20,558.63a2.55,2.55,0,0,1,.2-.73c.23-.4.73-.63.85-1.09s-.28-.94-.4-1.43a3.87,3.87,0,0,1,0-1,8.9,8.9,0,0,0-.26-2.11,3.81,3.81,0,0,0-1.24-2.53c-.72-.5-1.7-.45-2.43-1a2.26,2.26,0,0,0-.81-.49,1.42,1.42,0,0,0-.5,0C14.83,548.41,12.62,548.55,12.88,549.52Z"/><path class="cls-1" d="M16.27,545.4a1.08,1.08,0,0,0,.22.5c.16.18.43.26.56.46a1.65,1.65,0,0,1,.18.62,1.92,1.92,0,0,0,.93,1.11,10.15,10.15,0,0,1,1.24.81,5.14,5.14,0,0,1,.71.89,4.25,4.25,0,0,1,.82,1.73,3,3,0,0,0,.17.85c.07.13.18.24.26.37a2.48,2.48,0,0,1,.24,1.53c0,.56-.07,1.11-.11,1.67a2.82,2.82,0,0,0,0,.65,4.35,4.35,0,0,0,.3.83,5.6,5.6,0,0,1,.45,2,1.8,1.8,0,0,0,.15.83.52.52,0,0,0,.72.24.68.68,0,0,0,.14-.68,1.45,1.45,0,0,1-.09-.73c0-.1.1-.19.19-.19a.25.25,0,0,1,.14.06,1.71,1.71,0,0,1,.52.55.52.52,0,0,0,.14.19c.22.15.49-.14.57-.41a2.72,2.72,0,0,0,.05-1.36.88.88,0,0,0-.25-.5,1.09,1.09,0,0,0-.47-.19,3.1,3.1,0,0,1-.9-.31,1,1,0,0,1-.52-.76c0-.25.09-.48.09-.72a2.14,2.14,0,0,0-.31-.93,4.64,4.64,0,0,1-.47-2.1,3.6,3.6,0,0,0-.12-1.43,5.62,5.62,0,0,1-.34-.64,3.1,3.1,0,0,1,0-1.05,8.78,8.78,0,0,0-.75-2.72,3.58,3.58,0,0,0-.39-1.14,3.37,3.37,0,0,0-1.11-.8,4.51,4.51,0,0,1-1.56-1.54c-.29-.48-1.1-2.16-1.55-.84A6.1,6.1,0,0,0,16.27,545.4Z"/><path class="cls-1" d="M14.48,567.23a4.37,4.37,0,0,0,.08,1.25l.24,1.5a2.49,2.49,0,0,0,.19.71,4.27,4.27,0,0,0,.76.89,1.07,1.07,0,0,1,.31,1.06.77.77,0,0,1,.93.42,1.3,1.3,0,0,1-.07,1.09.5.5,0,0,0-.07.35c0,.15.23.19.37.24a2.28,2.28,0,0,1,.79.59A9.06,9.06,0,0,1,19.46,577a4.73,4.73,0,0,0,.43.69c.59.69,1.77.85,2.07,1.71.08.24.07.49.13.73a.73.73,0,0,0,.43.57c.27-1.24-.82-2.38-.9-3.64a5.92,5.92,0,0,0,0-.94,2.94,2.94,0,0,0-.91-1.28,2.2,2.2,0,0,1-.74-2.2c.27-.62,1-1,1-1.71,0-.5-.52-.84-.72-1.29a8.36,8.36,0,0,1-.26-1.34c-.25-.91-1.17-1.49-1.52-2.37-.1-.24-.15-.5-.25-.75A2.2,2.2,0,0,0,16.94,564a.89.89,0,0,0-.78,0,.83.83,0,0,0-.31.83c0,.32.17.61.22.92A.26.26,0,0,1,16,566c-.23.2-.71,0-1,.13A1.52,1.52,0,0,0,14.48,567.23Z"/><path class="cls-1" d="M19.31,582.83c-.19.28.14.64.47.74s.71.1.94.34.16,1,.43,1.43,1.21.46,1.54,1c.19.3.13.7.23,1a1.16,1.16,0,0,0,1.25.8,5.69,5.69,0,0,0,.85-.29.78.78,0,0,1,.83.17,2.9,2.9,0,0,0,.19.29c.18.17.46.1.7,0a4.45,4.45,0,0,1,3.74.82.86.86,0,0,1,.33.4,1.11,1.11,0,0,1,0,.51,3.07,3.07,0,0,1-.76,1.67c-.22.19-.49.32-.71.5a3.2,3.2,0,0,0-.86,1.37,2.06,2.06,0,0,0-.22,1,.68.68,0,0,0,.69.62c.43-.07.61-.64,1-.77a.77.77,0,0,1,.81.32,2.24,2.24,0,0,1,.32.85c.08.33.15.65.23,1a.57.57,0,0,1,.8,0,.58.58,0,0,1,0,.8c-.17.17-.46.27-.49.51s.4.41.67.3a4.29,4.29,0,0,0,.9-.63.85.85,0,0,1,1-.07.74.74,0,0,1,.22.44,1.52,1.52,0,0,1-.23,1.1.8.8,0,0,0-.2.45c0,.35.6.41.69.75s-.34.56-.6.81a.83.83,0,0,0-.22.8.59.59,0,0,0,.69.37A3.18,3.18,0,0,0,35,602a1.06,1.06,0,0,1,1.11.17,4.42,4.42,0,0,1,.76.9.6.6,0,0,0,.31.28c.21.06.42-.08.63-.08a1.32,1.32,0,0,1,.56.21,2,2,0,0,0,2.14-.28,7.64,7.64,0,0,1,2.35,1.09.62.62,0,0,1,.26.27c.1.23-.06.48-.17.71s-.15.56.07.67a.47.47,0,0,0,.31,0,4.53,4.53,0,0,0,1.61-1.05c.52-.38,1.34-.58,1.76-.09a.85.85,0,0,0,.24.26c.26.15.6-.13.89,0s.32.49.26.79a1.16,1.16,0,0,0,0,.88.69.69,0,0,0,1,0,2.67,2.67,0,0,0,.59-.88.93.93,0,0,1,.25-.33c.4-.33,1,0,1.5.07.7.06,1.54-.44,2,.05a1.45,1.45,0,0,1,.3.47,2.3,2.3,0,0,0,1.17,1.09,1.52,1.52,0,0,0,1.53-.24,2.57,2.57,0,0,0,.63-1.53,5.5,5.5,0,0,0,.11-1.76,2.77,2.77,0,0,0-1.55-2,10.77,10.77,0,0,1-1.69-.66c-.48-.31-.8-.83-1.28-1.15a4.81,4.81,0,0,0-2.27-.44,15.89,15.89,0,0,1-4.95-1.53,1.43,1.43,0,0,1-.73-.51c-.3-.48,0-1.22-.46-1.58s-.75-.15-1.11-.29-.61-.57-1-.81-1.14-.25-1.65-.52-1-1.12-1.64-1.43a3.88,3.88,0,0,0-.76-.21,5.08,5.08,0,0,1-2.33-1.24A4.87,4.87,0,0,0,34,590a1.4,1.4,0,0,1-.64-.22c-.15-.14-.19-.36-.31-.54s-.51-.38-.73-.6-.27-.39-.42-.57c-.62-.72-1.76-.6-2.65-1s-1.74-1.37-2.8-1.44c-.56,0-1.11.21-1.66.15a3.06,3.06,0,0,1-1.35-.61,1.32,1.32,0,0,1-.4-.38c-.13-.23-.09-.52-.22-.75-.26-.47-1-.38-1.43-.65s-.68-.9-1.2-1S19.56,582.44,19.31,582.83Z"/><path class="cls-1" d="M81.49,616.1c-.57-.31-1.25,0-1.89.14s-1.48-.12-2.21,0c-.4,0-.79.21-1.19.29a11.58,11.58,0,0,0-2.37.34c-.65.27-1.27.86-1.94.67-.19,0-.36-.16-.55-.21a.45.45,0,0,0-.52.17.49.49,0,0,0,0,.27,7.53,7.53,0,0,0,.08.83c-.39-.09-.42-.76-.82-.84-.21,0-.41.14-.62.21-.51.19-1.19-.2-1.58.19s-.27.85-.65.88c-.11,0-.22,0-.32,0s0,.46.2.53.52,0,.68.23a.68.68,0,0,1,.13.48c0,.34,0,.68,0,1a.64.64,0,0,0,.68-.13,1.64,1.64,0,0,1,.63-.38c.14,0,.29,0,.44,0,.61,0,1.06-.67,1.67-.7,0,.2-.24.34-.43.44a1.37,1.37,0,0,0-.53.35c-.13.16-.13.46.06.55l-.67.14c-.1,0-.22.06-.24.16s.18.2.32.2h.82a1.19,1.19,0,0,1,0,.62c.22.22.65-.12.88.08s.07.38,0,.56A.5.5,0,0,1,72,624c.26,0,.36.33.32.59s-.09.58.12.73a2.26,2.26,0,0,0,.42-1.2c.29,0,.4.38.64.55s1,0,1.24.34c.25-.06.2-.46,0-.6a3.37,3.37,0,0,0-.72-.23.94.94,0,0,1-.48-1.21.67.67,0,0,0,.09-.26c0-.26-.29-.38-.51-.51a2.22,2.22,0,0,1-.54-.43l-.84-.82c0-.05-.11-.12-.1-.19s.19-.14.3-.12a2.88,2.88,0,0,0,1.45-.25.27.27,0,0,0,.17-.13.31.31,0,0,0,0-.21,1,1,0,0,1,0-.65.41.41,0,0,1,.55-.18c.17.12.17.38.17.59a2.28,2.28,0,0,0,.12.73.63.63,0,0,0,.34.43c.18.06.41-.15.32-.31.17,0,.33.11.5.17.35.13.7-.14,1-.33s.81-.3,1,0a.71.71,0,0,1,0,.55,2.87,2.87,0,0,1-1.1,1.36.7.7,0,0,0,.72.13,1.78,1.78,0,0,0-.46,1.21,1.83,1.83,0,0,0,.39.79,1.22,1.22,0,0,0,.5.46.43.43,0,0,0,.57-.22c.07-.26-.2-.57,0-.78s.5,0,.67.22.52.42.68.19c0-.06,0-.14.1-.21s.46-.1.62.08.29.42.52.49a1.32,1.32,0,0,0,.62,0,2.39,2.39,0,0,1,1.4.4c.27.15.58.36.56.67a1.23,1.23,0,0,1-.26.49c-.09.16-.12.41,0,.51s.42-.09.64-.09.44.3.46.56a4,4,0,0,0,.08.78.4.4,0,0,0,.17.21.41.41,0,0,0,.44,0,1,1,0,0,0,.44-.92,1.92,1.92,0,0,0-.41-1c-.17-.23-.39-.47-.34-.75s.38-.45.64-.6a.53.53,0,0,0,.25-.26c.06-.22-.18-.42-.4-.45s-.46,0-.69,0-.46-.24-.39-.46.13-.18.15-.28-.27-.39-.53-.39a2.42,2.42,0,0,0-1.25.36.85.85,0,0,0-.7-1.07,6.36,6.36,0,0,0-.75.08c-.26,0-.55-.14-.57-.39s.28-.43.54-.42a6.58,6.58,0,0,1,.74.17,2.48,2.48,0,0,0,.9,0c.27,0,.61-.15.63-.42s-.6-.48-.84-.8-.14-.54-.3-.77a.92.92,0,0,0-.91-.23,1.94,1.94,0,0,1-1,.06.75.75,0,0,1,.21-1.47,5.12,5.12,0,0,1,.78.15C82.5,618.57,82.43,616.62,81.49,616.1Z"/><path class="cls-1" d="M28.71,570.08a5.5,5.5,0,0,0-.69-1.42c-.19-.24-.44-.44-.64-.69a9,9,0,0,1-.57-.89c-.67-1.05-1.84-1.92-1.87-3.16a6,6,0,0,0,0-.95c-.07-.3-.34-.6-.65-.55a.57.57,0,0,0-.33.22,1.7,1.7,0,0,0-.07,1.42.53.53,0,0,1,0,.28c-.1.32-.65.22-.85.49s.14.67.47.75.74.07,1,.31.24.63.43.9.84.44,1.12.82.18.7.37,1,.71.52,1.05.81c.91.77.51,2.35,1.44,3.07.47.37.93,0,.81-.56S29,570.68,28.71,570.08Z"/><path class="cls-1" d="M22.29,567.11a11.2,11.2,0,0,0,1.1.54,7,7,0,0,1,3,2.8,2,2,0,0,0,.33.48,7.31,7.31,0,0,0,.65.43,2.85,2.85,0,0,1,.89,1.81c-.93-.29-1.28-1.42-2-2a8.78,8.78,0,0,0-1.06-.64c-.8-.48-1.42-1.22-2.22-1.68a10.6,10.6,0,0,1-1.2-.64c-.48-.34-1.93-2.2-1.42-2.83.32-.4.7.22.86.48A3.61,3.61,0,0,0,22.29,567.11Z"/><path class="cls-1" d="M26.17,572.82c-.53-.45-.93-1.09-1.57-1.36a3.32,3.32,0,0,0-2.79.62c-.22.13-.46.32-.39.56s.51.26.82.2A2.47,2.47,0,0,1,24.78,574a1.57,1.57,0,0,0-.79.48c-.18.26-.14.69.16.79s.56-.07.76.11a.45.45,0,0,1,0,.55,3.91,3.91,0,0,0-.35.48c-.08.18,0,.45.15.51a.49.49,0,0,0,.24,0,2.46,2.46,0,0,0,1.07-.59c.1-.1.22-.21.36-.18a.32.32,0,0,1,.22.19,1.17,1.17,0,0,1,0,1.25c-.2.31-.56.54-.64.9s.06.6,0,.88-.55.69-.34,1,.6.1.84-.12a3.74,3.74,0,0,0,.65-.78.88.88,0,0,1,.26.87,7.39,7.39,0,0,0-.22.93c0,.27.08.6.35.65a.5.5,0,0,0,.27,0,1.19,1.19,0,0,0,.69-.63,2.66,2.66,0,0,0,.18-.67,10.82,10.82,0,0,0,.18-1.49,5.1,5.1,0,0,1,0-.78,4.58,4.58,0,0,0,.2-.89c0-.5-.38-.91-.47-1.4-.15-.71-.09-1.28-.61-1.85A18.83,18.83,0,0,0,26.17,572.82Z"/><path class="cls-1" d="M53.28,614.91a1.13,1.13,0,0,0-.19,1,.25.25,0,0,0,.13.17c.1,0,.23,0,.31-.12.29-.31.51-.74.91-.89a1.44,1.44,0,0,1,1.28.28.31.31,0,0,1,.15.17c0,.09,0,.18,0,.27s.25.17.4.25.33.46.54.67.45.27.57.49-.05.72.09,1a.53.53,0,0,0,.79.19c.09-.07.18-.18.29-.15a.22.22,0,0,1,.12.09c.11.14.17.3.28.43a.4.4,0,0,0,.44.18c.22-.09.23-.39.35-.59a.54.54,0,0,1,.5-.26.53.53,0,0,1,.45.36.45.45,0,0,0,.06.12c.09.08.22,0,.34,0a.41.41,0,0,1,.45.23,1,1,0,0,1,.05.54c0,.09,0,.2.06.25a.23.23,0,0,0,.14,0l.46,0a.34.34,0,0,0,.2,0c.15-.07.14-.29.09-.45s-.09-.35,0-.47.32-.06.44,0,.21.26.35.36a.6.6,0,0,0,.85-.82,1.67,1.67,0,0,0-.59-.42.67.67,0,0,1-.4-.58c.06-.45.84-.56.84-1,0-.31-.38-.48-.68-.43s-.57.22-.87.27a.27.27,0,0,1-.2,0,.24.24,0,0,1-.05-.28c.1-.28.4-.48.44-.77a.65.65,0,0,0-.31-.61,1.67,1.67,0,0,0-.67-.23c-.27,0-.55-.08-.84-.1a1,1,0,0,0-.76.17,1,1,0,0,0-.21.81c0,.25,0,.54.26.64s.39,0,.47.2a.25.25,0,0,1-.11.28.65.65,0,0,1-.31.08,2.46,2.46,0,0,1-1.82-.78,4.37,4.37,0,0,0-.42-.44,2,2,0,0,0-.66-.3l-1.49-.48a3,3,0,0,0-.84-.19c-.38,0-.54.18-.85.33S53.52,614.6,53.28,614.91Z"/><path class="cls-1" d="M66.51,615.64c.34,0,.61-.24.9-.41a1.62,1.62,0,0,1,.86-.22,2.72,2.72,0,0,0,.57,0,5.71,5.71,0,0,0,.67-.3,1.47,1.47,0,0,1,1.2.27,2.42,2.42,0,0,0,.57.31,2,2,0,0,0,.64,0,3.43,3.43,0,0,1,1.69.41.71.71,0,0,0-.46.33,2.29,2.29,0,0,1-.14.27.62.62,0,0,1-.46.21,2.92,2.92,0,0,1-.51,0,5.1,5.1,0,0,0-2.15.32,2.06,2.06,0,0,1-.68.17c-.43,0-.86-.28-1.26-.14a2.22,2.22,0,0,0-.52.34,3.19,3.19,0,0,1-1.09.41,1.54,1.54,0,0,1-.47,0,.69.69,0,0,1-.53-.36.33.33,0,0,1,0-.14.67.67,0,0,1,.13-.23c.34-.54-.68-.61-.32-1.11a.91.91,0,0,1,.67-.38C66,615.43,66.26,615.62,66.51,615.64Z"/><path class="cls-1" d="M95.74,617.72c.16.09.35.16.43.32a.64.64,0,0,1,0,.41c0,.11,0,.21-.07.32a1.22,1.22,0,0,1-.59-.32c-.23-.21-.39-.5-.67-.63a1.67,1.67,0,0,1-.45-.2.55.55,0,0,1-.11-.45C94.44,616.14,95.41,617.53,95.74,617.72Z"/><path class="cls-1" d="M95,620.88a.94.94,0,0,1,.64,0,.55.55,0,0,1,.23.11.76.76,0,0,1,.13.66c0,.12,0,.24,0,.36a1,1,0,0,1-.22.63.66.66,0,0,1-.7.08,1.91,1.91,0,0,1-.59-.43.45.45,0,0,1-.1-.14.29.29,0,0,1,0-.13A1.5,1.5,0,0,1,95,620.88Z"/><path class="cls-1" d="M98.67,620.38a.28.28,0,0,0,.25-.08s0-.1.09-.13a.33.33,0,0,1,.36-.07,1.41,1.41,0,0,1,.59.32c.11.1.21.28.11.39s-.22.06-.34.08a.42.42,0,0,0-.34.38.54.54,0,0,1,0,.22l-.09.06c-.35.19-1.27.28-1.22-.35,0-.19.18-.35.23-.53S98.3,620.35,98.67,620.38Z"/><path class="cls-1" d="M88,626.48a1,1,0,0,0-.24.29.37.37,0,0,0,.1.42.39.39,0,0,0,.44,0c.08-.05.18-.14.27-.1s0,.25,0,.39a.94.94,0,0,0,0,.57.5.5,0,0,1-.09.53c.39.2.9,0,1.29.2a1.22,1.22,0,0,1,.41.46,1,1,0,0,1,.19.49.62.62,0,0,1-.42.59,1.13,1.13,0,0,1-.77,0c-.18-.06-.36-.15-.55-.2a1.91,1.91,0,0,0-.79,0,1.5,1.5,0,0,0-.59.18.58.58,0,0,0-.28.52c0,.09,0,.19.14.21a.19.19,0,0,0,.13,0c.23,0,.45-.18.68-.12s.29.23.47.26.29,0,.44,0,.37.16.57.18a.85.85,0,0,0,.43-.12,2.39,2.39,0,0,1,.78-.26.71.71,0,0,1,.69.36c.13.28,0,.62,0,.92a.83.83,0,0,0,.41.64.62.62,0,0,0,.4.06.35.35,0,0,0,.25-.31c0-.21-.23-.41-.14-.6a.32.32,0,0,1,.11-.12A.83.83,0,0,1,93,632a2.25,2.25,0,0,0,.73.28.29.29,0,0,0,.23-.08c.1-.1,0-.28-.06-.38s-.21-.21-.23-.35c0-.3.38-.54.29-.83s-.35-.27-.58-.28-.54-.1-.55-.33.22-.36.16-.55-.34-.2-.54-.26-.52-.47-.67-.79a2.58,2.58,0,0,1-.32-1.4c0-.31.19-.67,0-.89a.47.47,0,0,0-.52-.06.92.92,0,0,0-.38.4,1.87,1.87,0,0,0-.26.75.25.25,0,0,1-.05.13.09.09,0,0,1-.08,0,.6.6,0,0,1-.62-.4,2.27,2.27,0,0,1-.12-.78,1.13,1.13,0,0,0-.24-.74.43.43,0,0,0-.72,0C88.26,625.81,88.26,626.17,88,626.48Z"/><path class="cls-4" d="M69.24,42.65a6.19,6.19,0,1,1-6.18-6.18A6.19,6.19,0,0,1,69.24,42.65Z"/><path class="cls-4" d="M65.24,98.65a6.19,6.19,0,1,1-6.18-6.18A6.19,6.19,0,0,1,65.24,98.65Z"/><path class="cls-4" d="M55.24,196.65a6.19,6.19,0,1,1-6.18-6.18A6.19,6.19,0,0,1,55.24,196.65Z"/><path class="cls-4" d="M52.24,240.65a6.19,6.19,0,1,1-6.18-6.18A6.19,6.19,0,0,1,52.24,240.65Z"/><path class="cls-4" d="M65.24,252.65a6.19,6.19,0,1,1-6.18-6.18A6.19,6.19,0,0,1,65.24,252.65Z"/><path class="cls-4" d="M63.21,262.65a4.16,4.16,0,1,1-4.15-4.15A4.15,4.15,0,0,1,63.21,262.65Z"/><path class="cls-4" d="M48.24,293.65a6.19,6.19,0,1,1-6.18-6.18A6.19,6.19,0,0,1,48.24,293.65Z"/><path class="cls-4" d="M33.24,311.65a6.19,6.19,0,1,1-6.18-6.18A6.19,6.19,0,0,1,33.24,311.65Z"/><path class="cls-4" d="M39.24,339.65a6.19,6.19,0,1,1-6.18-6.18A6.19,6.19,0,0,1,39.24,339.65Z"/><path class="cls-4" d="M34.24,357.65a6.19,6.19,0,1,1-6.18-6.18A6.19,6.19,0,0,1,34.24,357.65Z"/><path class="cls-4" d="M33.24,379.65a6.19,6.19,0,1,1-6.18-6.18A6.19,6.19,0,0,1,33.24,379.65Z"/></g></g></svg>